<?xml version="1.0" encoding="UTF-8" standalone="no"?>
<svg
   xmlns:dc="http://purl.org/dc/elements/1.1/"
   xmlns:cc="http://creativecommons.org/ns#"
   xmlns:rdf="http://www.w3.org/1999/02/22-rdf-syntax-ns#"
   xmlns:svg="http://www.w3.org/2000/svg"
   xmlns="http://www.w3.org/2000/svg"
   xmlns:sodipodi="http://sodipodi.sourceforge.net/DTD/sodipodi-0.dtd"
   xmlns:inkscape="http://www.inkscape.org/namespaces/inkscape"
   width="24"
   height="24"
   viewBox="0 0 24 24"
   version="1.1"
   id="svg16"
   sodipodi:docname="outline-casino-24px.svg"
   inkscape:version="0.92.4 5da689c313, 2019-01-14">
  <metadata
     id="metadata22">
    <rdf:RDF>
      <cc:Work
         rdf:about="">
        <dc:format>image/svg+xml</dc:format>
        <dc:type
           rdf:resource="http://purl.org/dc/dcmitype/StillImage" />
      </cc:Work>
    </rdf:RDF>
  </metadata>
  <defs
     id="defs20" />
  <sodipodi:namedview
     pagecolor="#ffffff"
     bordercolor="#666666"
     borderopacity="1"
     objecttolerance="10"
     gridtolerance="10"
     guidetolerance="10"
     inkscape:pageopacity="0"
     inkscape:pageshadow="2"
     inkscape:window-width="1920"
     inkscape:window-height="1016"
     id="namedview18"
     showgrid="false"
     inkscape:zoom="9.8333333"
     inkscape:cx="-11.644068"
     inkscape:cy="11.79661"
     inkscape:window-x="1920"
     inkscape:window-y="30"
     inkscape:window-maximized="1"
     inkscape:current-layer="svg16" />
  <path
     d="M 5 3 C 3.9 3 3 3.9 3 5 L 3 19 C 3 20.1 3.9 21 5 21 L 19 21 C 20.1 21 21 20.1 21 19 L 21 5 C 21 3.9 20.1 3 19 3 L 5 3 z M 4.1699219 4.1699219 L 19.830078 4.1699219 L 19.830078 19.830078 L 4.1699219 19.830078 L 4.1699219 4.1699219 z "
     id="path4" />
  <circle
     cx="8.0338984"
     cy="15.966102"
     r="1.3220339"
     id="circle6"
     style="stroke-width:0.88135594" />
  <circle
     cx="8.0338984"
     cy="8.0338984"
     r="1.3220339"
     id="circle8"
     style="stroke-width:0.88135594" />
  <circle
     cx="12"
     cy="12"
     r="1.3220339"
     id="circle10"
     style="stroke-width:0.88135594" />
  <circle
     cx="15.966102"
     cy="15.966102"
     r="1.3220339"
     id="circle12"
     style="stroke-width:0.88135594" />
  <circle
     cx="15.966102"
     cy="8.0338984"
     r="1.3220339"
     id="circle14"
     style="stroke-width:0.88135594" />
</svg>
