<?xml version="1.0" encoding="UTF-8" standalone="no"?>
<svg
   height="24px"
   viewBox="0 -960 960 960"
   width="24px"
   fill="#e8eaed"
   version="1.1"
   id="svg209"
   sodipodi:docname="heart_plus.svg"
   inkscape:version="1.2.2 (b0a8486541, 2022-12-01)"
   xmlns:inkscape="http://www.inkscape.org/namespaces/inkscape"
   xmlns:sodipodi="http://sodipodi.sourceforge.net/DTD/sodipodi-0.dtd"
   xmlns="http://www.w3.org/2000/svg"
   xmlns:svg="http://www.w3.org/2000/svg">
  <defs
     id="defs213" />
  <sodipodi:namedview
     id="namedview211"
     pagecolor="#505050"
     bordercolor="#eeeeee"
     borderopacity="1"
     inkscape:showpageshadow="0"
     inkscape:pageopacity="0"
     inkscape:pagecheckerboard="0"
     inkscape:deskcolor="#505050"
     showgrid="false"
     inkscape:zoom="9.8333333"
     inkscape:cx="12.050847"
     inkscape:cy="12.050847"
     inkscape:window-width="1920"
     inkscape:window-height="999"
     inkscape:window-x="0"
     inkscape:window-y="0"
     inkscape:window-maximized="1"
     inkscape:current-layer="svg209" />
  <path
     id="path207"
     style="stroke-width:1.09091"
     d="M 240 -877.5 C 171.63644 -877.5 114.56814 -854.75138 68.75 -809.29688 C 22.931864 -763.84237 0 -706.95731 0 -638.59375 C -5.9211835e-15 -590.5938 13.6648 -543.34228 40.9375 -496.79688 C 68.2102 -450.25147 101.43044 -405.67042 140.70312 -363.125 C 179.97581 -320.57959 221.4418 -280.76274 265.07812 -243.67188 C 308.71444 -206.581 346.51566 -173.46588 378.51562 -144.375 C 386.51562 -136.37501 395.59944 -130.58948 405.78125 -126.95312 C 415.96306 -123.31676 426.14632 -121.48437 436.32812 -121.48438 C 446.50993 -121.48438 456.69319 -123.13353 466.875 -126.40625 C 477.05681 -129.67897 486.21876 -135.28126 494.21875 -143.28125 L 580.39062 -219.6875 C 589.11789 -227.68749 593.98722 -237.50428 595.07812 -249.14062 C 596.16903 -260.77698 592.76562 -270.96024 584.76562 -279.6875 C 563.67474 -302.23293 548.17755 -327.1023 538.35938 -354.375 C 528.5412 -381.6477 523.67188 -410.62645 523.67188 -441.17188 C 523.67188 -516.08089 549.45743 -578.38499 601.09375 -628.20312 C 652.73006 -678.02126 709.43188 -702.96875 771.25 -702.96875 L 788.75 -702.96875 C 808.38635 -701.5142 823.43893 -707.84945 833.98438 -722.03125 C 844.52982 -736.21306 845.81249 -750.24433 837.8125 -764.0625 C 817.44889 -796.78974 789.64769 -823.85797 754.375 -845.3125 C 719.10231 -866.76703 678.55252 -877.5 632.73438 -877.5 C 594.91623 -877.5 558.94741 -869.69885 524.76562 -854.0625 C 490.58385 -838.42616 461.05537 -816.044 436.32812 -786.95312 C 411.60088 -816.044 382.15054 -838.42616 347.96875 -854.0625 C 313.78696 -869.69885 277.81814 -877.5 240 -877.5 z M 785.46875 -615.70312 C 773.10512 -615.70312 762.73862 -611.48863 754.375 -603.125 C 746.01137 -594.76138 741.79688 -584.39488 741.79688 -572.03125 L 741.79688 -484.76562 L 654.53125 -484.76562 C 642.16763 -484.76562 631.80112 -480.62926 623.4375 -472.26562 C 615.07387 -463.902 610.9375 -453.5355 610.9375 -441.17188 C 610.9375 -428.80825 615.07387 -418.44176 623.4375 -410.07812 C 631.80112 -401.7145 642.16763 -397.5 654.53125 -397.5 L 741.79688 -397.5 L 741.79688 -310.23438 C 741.79688 -297.87075 746.01137 -287.50426 754.375 -279.14062 C 762.73862 -270.777 773.10512 -266.5625 785.46875 -266.5625 C 797.83237 -266.5625 808.19888 -270.777 816.5625 -279.14062 C 824.92613 -287.50426 829.0625 -297.87075 829.0625 -310.23438 L 829.0625 -397.5 L 916.32812 -397.5 C 928.69175 -397.5 939.05824 -401.7145 947.42188 -410.07812 C 955.7855 -418.44176 960 -428.80825 960 -441.17188 C 960 -453.5355 955.7855 -463.902 947.42188 -472.26562 C 939.05824 -480.62926 928.69175 -484.76563 916.32812 -484.76562 L 829.0625 -484.76562 L 829.0625 -572.03125 C 829.0625 -584.39488 824.92613 -594.76138 816.5625 -603.125 C 808.19888 -611.48863 797.83237 -615.70312 785.46875 -615.70312 z M 32.734375 -143.28125 L 32.734375 22.5 L 32.734375 -143.28125 z " />
</svg>
