<?xml version="1.0" encoding="UTF-8" standalone="no"?>
<svg
   version="1.1"
   viewBox="0.00 0.00 1024.00 1024.00"
   id="svg304"
   sodipodi:docname="icon.svg"
   xml:space="preserve"
   inkscape:version="1.2.2 (b0a8486541, 2022-12-01)"
   inkscape:export-filename="icon-background.png"
   inkscape:export-xdpi="96"
   inkscape:export-ydpi="96"
   xmlns:inkscape="http://www.inkscape.org/namespaces/inkscape"
   xmlns:sodipodi="http://sodipodi.sourceforge.net/DTD/sodipodi-0.dtd"
   xmlns:xlink="http://www.w3.org/1999/xlink"
   xmlns="http://www.w3.org/2000/svg"
   xmlns:svg="http://www.w3.org/2000/svg"><defs
     id="defs308"><inkscape:perspective
       sodipodi:type="inkscape:persp3d"
       inkscape:vp_x="0 : 512 : 1"
       inkscape:vp_y="0 : 1000 : 0"
       inkscape:vp_z="1024 : 512 : 1"
       inkscape:persp3d-origin="512 : 341.33333 : 1"
       id="perspective8293" /><linearGradient
       inkscape:collect="always"
       id="linearGradient8229"><stop
         style="stop-color:#d4d451;stop-opacity:1;"
         offset="0"
         id="stop8225" /><stop
         style="stop-color:#4caf50;stop-opacity:1;"
         offset="1"
         id="stop8227" /></linearGradient><clipPath
       clipPathUnits="userSpaceOnUse"
       id="clipPath26053"><circle
         style="fill:none;fill-opacity:1;stroke:#000000;stroke-width:1.16929;stroke-linejoin:round;paint-order:fill markers stroke"
         id="circle26055"
         cx="8241.4541"
         cy="1024"
         r="468.56757" /></clipPath><radialGradient
       inkscape:collect="always"
       xlink:href="#linearGradient8229"
       id="radialGradient1422"
       gradientUnits="userSpaceOnUse"
       gradientTransform="translate(1084.8948,-6.1035156e-5)"
       cx="7243.2676"
       cy="1044.5801"
       fx="7243.2676"
       fy="1044.5801"
       r="466.82205" /><clipPath
       clipPathUnits="userSpaceOnUse"
       id="clipPath26053-7"><circle
         style="fill:none;fill-opacity:1;stroke:#000000;stroke-width:1.16929;stroke-linejoin:round;paint-order:fill markers stroke"
         id="circle26055-5"
         cx="8241.4541"
         cy="1024"
         r="468.56757" /></clipPath><radialGradient
       inkscape:collect="always"
       xlink:href="#linearGradient7144"
       id="radialGradient7146"
       cx="8328.1621"
       cy="1097.646"
       fx="8328.1621"
       fy="1097.646"
       r="335.3287"
       gradientTransform="matrix(1,0,0,0.90939472,0,99.452516)"
       gradientUnits="userSpaceOnUse" /><linearGradient
       inkscape:collect="always"
       id="linearGradient7144"><stop
         style="stop-color:#e91e63;stop-opacity:1;"
         offset="0"
         id="stop7140" /><stop
         style="stop-color:#bc164f;stop-opacity:1;"
         offset="1"
         id="stop7142" /></linearGradient></defs><sodipodi:namedview
     id="namedview306"
     pagecolor="#505050"
     bordercolor="#eeeeee"
     borderopacity="1"
     inkscape:showpageshadow="0"
     inkscape:pageopacity="0"
     inkscape:pagecheckerboard="0"
     inkscape:deskcolor="#505050"
     showgrid="false"
     inkscape:zoom="0.5"
     inkscape:cx="655"
     inkscape:cy="427"
     inkscape:window-width="1920"
     inkscape:window-height="999"
     inkscape:window-x="0"
     inkscape:window-y="0"
     inkscape:window-maximized="1"
     inkscape:current-layer="svg304"
     showguides="true"><inkscape:grid
       type="xygrid"
       id="grid21388" /></sodipodi:namedview><g
     id="g1420"
     transform="translate(-7816.1621,-532.58008)"
     inkscape:export-filename="g1420.png"
     inkscape:export-xdpi="96"
     inkscape:export-ydpi="96"><circle
       style="fill:#353535;fill-opacity:1;stroke:none;stroke-width:1.27769;stroke-linejoin:round;paint-order:fill markers stroke"
       id="circle1257"
       cx="8328.1621"
       cy="1044.5801"
       r="512"
       inkscape:export-filename="new-logo.png"
       inkscape:export-xdpi="96"
       inkscape:export-ydpi="96" /><g
       id="g1418"
       transform="matrix(0.92702764,0,0,0.92702764,607.72564,76.225473)"><circle
         style="fill:url(#radialGradient1422);fill-opacity:1;stroke:none;stroke-width:1.16494;stroke-linejoin:round;paint-order:fill markers stroke"
         id="circle1259"
         cx="8328.1621"
         cy="1044.5801"
         r="466.82205" /><g
         id="g1406"
         transform="matrix(0.99414063,0,0,0.99414063,134.99803,26.580012)"
         clip-path="url(#clipPath26053-7)"><path
           id="path1261"
           style="color:#000000;fill:#3a3a3a;fill-opacity:0.208254;stroke-linecap:round;-inkscape-stroke:none;paint-order:stroke fill markers"
           d="m 7909.9355,1261.1621 v 53.3848 h 53.379 v -53.3848 z" /><path
           id="path1263"
           style="color:#000000;fill:#3a3a3a;fill-opacity:0.208254;stroke-linecap:round;-inkscape-stroke:none;paint-order:stroke fill markers"
           d="m 7970.5566,1200.5352 v 53.3847 h 53.3809 v -53.3847 z" /><path
           id="path1265"
           style="color:#000000;fill:#3a3a3a;fill-opacity:0.208254;stroke-linecap:round;-inkscape-stroke:none;paint-order:stroke fill markers"
           d="m 7909.9355,1200.5352 v 53.3847 h 53.379 v -53.3847 z" /><path
           id="path1267"
           style="color:#000000;fill:#3a3a3a;fill-opacity:0.208254;stroke-linecap:round;-inkscape-stroke:none;paint-order:stroke fill markers"
           d="m 7821.0156,1314.5469 h 81.6778 v -53.3848 H 7789.082 a 512,512 0 0 0 31.9336,53.3848 z" /><path
           id="path1269"
           style="color:#000000;fill:#3a3a3a;fill-opacity:0.208254;stroke-linecap:round;-inkscape-stroke:none;paint-order:stroke fill markers"
           d="m 7870.3945,1375.1758 h 32.2989 v -53.3867 h -76.2579 a 512,512 0 0 0 0.01,0.01 512,512 0 0 0 43.9512,53.377 z" /><path
           id="path1271"
           style="color:#000000;fill:#3a3a3a;fill-opacity:0.208254;stroke-linecap:round;-inkscape-stroke:none;paint-order:stroke fill markers"
           d="m 8516.1582,1321.7891 v 53.3867 h 53.3809 v -53.3867 z" /><path
           id="path1273"
           style="color:#000000;fill:#3a3a3a;fill-opacity:0.208254;stroke-linecap:round;-inkscape-stroke:none;paint-order:stroke fill markers"
           d="m 8455.5371,1321.7891 v 53.3867 h 53.3789 v -53.3867 z" /><path
           id="path1275"
           style="color:#000000;fill:#3a3a3a;fill-opacity:0.208254;stroke-linecap:round;-inkscape-stroke:none;paint-order:stroke fill markers"
           d="m 8394.9141,1321.7891 v 53.3867 h 53.3808 v -53.3867 z" /><path
           id="path1277"
           style="color:#000000;fill:#3a3a3a;fill-opacity:0.208254;stroke-linecap:round;-inkscape-stroke:none;paint-order:stroke fill markers"
           d="m 8334.291,1321.7891 v 53.3867 h 53.3809 v -53.3867 z" /><path
           id="path1279"
           style="color:#000000;fill:#3a3a3a;fill-opacity:0.208254;stroke-linecap:round;-inkscape-stroke:none;paint-order:stroke fill markers"
           d="m 8273.6699,1321.7891 v 53.3867 h 53.3789 v -53.3867 z" /><path
           id="path1281"
           style="color:#000000;fill:#3a3a3a;fill-opacity:0.208254;stroke-linecap:round;-inkscape-stroke:none;paint-order:stroke fill markers"
           d="m 8152.4238,1321.7891 v 53.3867 h 53.3809 v -53.3867 z" /><path
           id="path1283"
           style="color:#000000;fill:#3a3a3a;fill-opacity:0.208254;stroke-linecap:round;-inkscape-stroke:none;paint-order:stroke fill markers"
           d="m 8091.8027,1321.7891 v 53.3867 h 53.3789 v -53.3867 z" /><path
           id="path1285"
           style="color:#000000;fill:#3a3a3a;fill-opacity:0.208254;stroke-linecap:round;-inkscape-stroke:none;paint-order:stroke fill markers"
           d="m 8031.1797,1321.7891 v 53.3867 h 53.3808 v -53.3867 z" /><path
           id="path1287"
           style="color:#000000;fill:#3a3a3a;fill-opacity:0.208254;stroke-linecap:round;-inkscape-stroke:none;paint-order:stroke fill markers"
           d="m 7970.5566,1321.7891 v 53.3867 h 53.3809 v -53.3867 z" /><path
           id="path1289"
           style="color:#000000;fill:#3a3a3a;fill-opacity:0.208254;stroke-linecap:round;-inkscape-stroke:none;paint-order:stroke fill markers"
           d="m 7909.9355,1321.7891 v 53.3867 h 53.379 v -53.3867 z" /><path
           id="path1291"
           style="color:#000000;fill:#3a3a3a;fill-opacity:0.208254;stroke-linecap:round;-inkscape-stroke:none;paint-order:stroke fill markers"
           d="m 8516.1582,1261.1621 v 53.3848 h 53.3809 v -53.3848 z" /><path
           id="path1293"
           style="color:#000000;fill:#3a3a3a;fill-opacity:0.208254;stroke-linecap:round;-inkscape-stroke:none;paint-order:stroke fill markers"
           d="m 8455.5371,1261.1621 v 53.3848 h 53.3789 v -53.3848 z" /><path
           id="path1295"
           style="color:#000000;fill:#3a3a3a;fill-opacity:0.208254;stroke-linecap:round;-inkscape-stroke:none;paint-order:stroke fill markers"
           d="m 8394.9141,1261.1621 v 53.3848 h 53.3808 v -53.3848 z" /><path
           id="path1297"
           style="color:#000000;fill:#3a3a3a;fill-opacity:0.208254;stroke-linecap:round;-inkscape-stroke:none;paint-order:stroke fill markers"
           d="m 8334.291,1261.1621 v 53.3848 h 53.3809 v -53.3848 z" /><path
           id="path1299"
           style="color:#000000;fill:#3a3a3a;fill-opacity:0.208254;stroke-linecap:round;-inkscape-stroke:none;paint-order:stroke fill markers"
           d="m 8091.8027,1261.1621 v 53.3848 h 53.3789 v -53.3848 z" /><path
           id="path1301"
           style="color:#000000;fill:#3a3a3a;fill-opacity:0.208254;stroke-linecap:round;-inkscape-stroke:none;paint-order:stroke fill markers"
           d="m 8031.1797,1261.1621 v 53.3848 h 53.3808 v -53.3848 z" /><path
           id="path1303"
           style="color:#000000;fill:#3a3a3a;fill-opacity:0.208254;stroke-linecap:round;-inkscape-stroke:none;paint-order:stroke fill markers"
           d="m 7970.5566,1261.1621 v 53.3848 h 53.3809 v -53.3848 z" /><path
           id="path1305"
           style="color:#000000;fill:#3a3a3a;fill-opacity:0.208254;stroke-linecap:round;-inkscape-stroke:none;paint-order:stroke fill markers"
           d="m 8516.1582,1200.5352 v 53.3847 h 53.3809 v -53.3847 z" /><path
           id="path1307"
           style="color:#000000;fill:#3a3a3a;fill-opacity:0.208254;stroke-linecap:round;-inkscape-stroke:none;paint-order:stroke fill markers"
           d="m 8455.5371,1200.5352 v 53.3847 h 53.3789 v -53.3847 z" /><path
           id="path1309"
           style="color:#000000;fill:#3a3a3a;fill-opacity:0.208254;stroke-linecap:round;-inkscape-stroke:none;paint-order:stroke fill markers"
           d="m 8394.9141,1200.5352 v 53.3847 h 53.3808 v -53.3847 z" /><path
           id="path1311"
           style="color:#000000;fill:#3a3a3a;fill-opacity:0.208254;stroke-linecap:round;-inkscape-stroke:none;paint-order:stroke fill markers"
           d="m 8031.1797,1200.5352 v 53.3847 h 53.3808 v -53.3847 z" /><path
           id="path1313"
           style="color:#000000;fill:#3a3a3a;fill-opacity:0.208254;stroke-linecap:round;-inkscape-stroke:none;paint-order:stroke fill markers"
           d="m 8516.1582,1139.9062 v 53.3868 h 53.3809 v -53.3868 z" /><path
           id="path1315"
           style="color:#000000;fill:#3a3a3a;fill-opacity:0.208254;stroke-linecap:round;-inkscape-stroke:none;paint-order:stroke fill markers"
           d="m 8455.5371,1139.9062 v 53.3868 h 53.3789 v -53.3868 z" /><path
           id="path1317"
           style="color:#000000;fill:#3a3a3a;fill-opacity:0.208254;stroke-linecap:round;-inkscape-stroke:none;paint-order:stroke fill markers"
           d="m 7970.5566,1139.9062 v 53.3868 h 53.3809 v -53.3868 z" /><path
           id="path1319"
           style="color:#000000;fill:#3a3a3a;fill-opacity:0.208254;stroke-linecap:round;-inkscape-stroke:none;paint-order:stroke fill markers"
           d="m 7909.9355,1139.9062 v 53.3868 h 53.379 v -53.3868 z" /><path
           id="path1321"
           style="color:#000000;fill:#3a3a3a;fill-opacity:0.208254;stroke-linecap:round;-inkscape-stroke:none;paint-order:stroke fill markers"
           d="m 8516.1582,1079.2793 v 53.3848 h 53.3809 v -53.3848 z" /><path
           id="path1323"
           style="color:#000000;fill:#3a3a3a;fill-opacity:0.208254;stroke-linecap:round;-inkscape-stroke:none;paint-order:stroke fill markers"
           d="m 7909.9355,1079.2793 v 53.3848 h 53.379 v -53.3848 z" /><path
           id="path1325"
           style="color:#000000;fill:#3a3a3a;fill-opacity:0.208254;stroke-linecap:round;-inkscape-stroke:none;paint-order:stroke fill markers"
           d="m 7970.5566,958.02344 v 53.38676 h 53.3809 v -53.38676 z" /><path
           id="path1327"
           style="color:#000000;fill:#3a3a3a;fill-opacity:0.208254;stroke-linecap:round;-inkscape-stroke:none;paint-order:stroke fill markers"
           d="m 7970.5566,897.39648 v 53.38477 h 53.3809 v -53.38477 z" /><path
           id="path1329"
           style="color:#000000;fill:#3a3a3a;fill-opacity:0.208254;stroke-linecap:round;-inkscape-stroke:none;paint-order:stroke fill markers"
           d="m 8213.0469,836.76953 v 53.38477 h 53.3808 v -53.38477 z" /><path
           id="path1331"
           style="color:#000000;fill:#3a3a3a;fill-opacity:0.208254;stroke-linecap:round;-inkscape-stroke:none;paint-order:stroke fill markers"
           d="m 8031.1797,836.76953 v 53.38477 h 53.3808 v -53.38477 z" /><path
           id="path1333"
           style="color:#000000;fill:#3a3a3a;fill-opacity:0.208254;stroke-linecap:round;-inkscape-stroke:none;paint-order:stroke fill markers"
           d="m 8516.1582,776.14062 v 53.38672 h 53.3809 v -53.38672 z" /><path
           id="path1335"
           style="color:#000000;fill:#3a3a3a;fill-opacity:0.208254;stroke-linecap:round;-inkscape-stroke:none;paint-order:stroke fill markers"
           d="m 8273.6699,776.14062 v 53.38672 h 53.3789 v -53.38672 z" /><path
           id="path1337"
           style="color:#000000;fill:#3a3a3a;fill-opacity:0.208254;stroke-linecap:round;-inkscape-stroke:none;paint-order:stroke fill markers"
           d="m 8213.0469,776.14062 v 53.38672 h 53.3808 v -53.38672 z" /><path
           id="path1339"
           style="color:#000000;fill:#3a3a3a;fill-opacity:0.208254;stroke-linecap:round;-inkscape-stroke:none;paint-order:stroke fill markers"
           d="m 8152.4238,776.14062 v 53.38672 h 53.3809 v -53.38672 z" /><path
           id="path1341"
           style="color:#000000;fill:#3a3a3a;fill-opacity:0.208254;stroke-linecap:round;-inkscape-stroke:none;paint-order:stroke fill markers"
           d="m 7909.9355,776.14062 v 53.38672 h 53.379 v -53.38672 z" /><path
           id="path1343"
           style="color:#000000;fill:#3a3a3a;fill-opacity:0.208254;stroke-linecap:round;-inkscape-stroke:none;paint-order:stroke fill markers"
           d="m 7970.5566,590.04883 v 178.84961 h 53.3809 V 560.90039 a 512,512 0 0 0 -53.3809,29.14844 z" /><path
           id="path1345"
           style="color:#000000;fill:#3a3a3a;fill-opacity:0.208254;stroke-linecap:round;-inkscape-stroke:none;paint-order:stroke fill markers"
           d="m 7909.9355,634.23242 v 134.66602 h 53.379 v -174.625 a 512,512 0 0 0 -53.379,39.95898 z" /><path
           id="path1347"
           style="color:#000000;fill:#3a3a3a;fill-opacity:0.208254;stroke-linecap:round;-inkscape-stroke:none;paint-order:stroke fill markers"
           d="m 7798.877,768.89844 h 103.8164 v -128.3711 a 512,512 0 0 0 -0.025,0.0254 512,512 0 0 0 -39.9922,39.99024 512,512 0 0 0 -27.6328,34.17187 512,512 0 0 0 -9.1172,12.17578 512,512 0 0 0 -27.0449,42.00196 512,512 0 0 0 0,0.006 z" /><g
           id="g1351"><path
             id="path1349"
             style="color:#000000;fill:#3a3a3a;fill-opacity:0.208254;stroke-linecap:round;-inkscape-stroke:none;paint-order:stroke fill markers"
             d="m 7768.9238,829.52734 h 133.7696 v -53.38672 h -107.7696 a 512,512 0 0 0 -25.9961,53.37891 512,512 0 0 0 0,0.008 z" /></g><path
           id="path1353"
           style="color:#000000;fill:#3a3a3a;fill-opacity:0.208254;stroke-linecap:round;-inkscape-stroke:none;paint-order:stroke fill markers"
           d="m 7747.9297,890.1543 h 154.7637 v -53.38477 h -136.4707 a 512,512 0 0 0 -0.012,0.0312 512,512 0 0 0 -18.2812,53.35352 z" /><path
           id="path1355"
           style="color:#000000;fill:#3a3a3a;fill-opacity:0.208254;stroke-linecap:round;-inkscape-stroke:none;paint-order:stroke fill markers"
           d="m 7742.4512,1132.6641 h 160.2422 v -53.3848 h -160.6641 a 3.6210749,3.6210749 0 0 1 -3.6211,-3.6211 3.6210749,3.6210749 0 0 1 3.6211,-3.6211 h 160.6641 v -53.3848 h -160.6641 a 3.6210749,3.6210749 0 0 1 -3.6211,-3.6211 3.6210749,3.6210749 0 0 1 3.6211,-3.621 h 160.6641 v -53.38676 h -160.6641 a 3.6210749,3.6210749 0 0 1 -3.6211,-3.6211 3.6210749,3.6210749 0 0 1 3.6211,-3.62109 h 160.6641 v -53.38477 h -156.3399 a 512,512 0 0 0 0,0.006 512,512 0 0 0 -12.2891,62.14649 512,512 0 0 0 -4.6094,64.45113 512,512 0 0 0 4.1348,57.8164 512,512 0 0 0 8.8633,50.8438 z" /><path
           id="path1357"
           style="color:#000000;fill:#3a3a3a;fill-opacity:0.208254;stroke-linecap:round;-inkscape-stroke:none;paint-order:stroke fill markers"
           d="m 7759.5332,1193.293 h 143.1602 v -53.3868 h -158.6661 a 512,512 0 0 0 15.5059,53.3848 z" /><path
           id="path1359"
           style="color:#000000;fill:#3a3a3a;fill-opacity:0.208254;stroke-linecap:round;-inkscape-stroke:none;paint-order:stroke fill markers"
           d="m 7785.127,1253.9199 h 117.5664 v -53.3847 h -140.459 a 512,512 0 0 0 22.8907,53.3809 z" /><path
           id="path1361"
           style="color:#000000;fill:#3a3a3a;fill-opacity:0.208254;stroke-linecap:round;-inkscape-stroke:none;paint-order:stroke fill markers"
           d="m 7963.3145,1453.7266 v -71.3086 h -53.379 v 31.3496 a 512,512 0 0 0 53.379,39.959 z" /><path
           id="path1363"
           style="color:#000000;fill:#3a3a3a;fill-opacity:0.208254;stroke-linecap:round;-inkscape-stroke:none;paint-order:stroke fill markers"
           d="M 8023.9375,1487.0996 V 1382.418 h -53.3809 v 75.5332 a 512,512 0 0 0 53.3809,29.1484 z" /><path
           id="path1365"
           style="color:#000000;fill:#3a3a3a;fill-opacity:0.208254;stroke-linecap:round;-inkscape-stroke:none;paint-order:stroke fill markers"
           d="m 8084.5605,1510.543 v -128.125 h -53.3808 v 108.2168 a 512,512 0 0 0 53.3808,19.9082 z" /><path
           id="path1367"
           style="color:#000000;fill:#3a3a3a;fill-opacity:0.208254;stroke-linecap:round;-inkscape-stroke:none;paint-order:stroke fill markers"
           d="M 8145.1816,1525.6973 V 1382.418 h -53.3789 v 130.8261 a 512,512 0 0 0 53.3653,12.4493 512,512 0 0 0 0.014,0 z" /><path
           id="path1369"
           style="color:#000000;fill:#3a3a3a;fill-opacity:0.208254;stroke-linecap:round;-inkscape-stroke:none;paint-order:stroke fill markers"
           d="M 8205.8047,1533.4512 V 1382.418 h -53.3809 v 144.8554 a 512,512 0 0 0 0.01,0 512,512 0 0 0 53.3614,6.1758 512,512 0 0 0 0.012,0 z" /><path
           id="path1371"
           style="color:#000000;fill:#3a3a3a;fill-opacity:0.208254;stroke-linecap:round;-inkscape-stroke:none;paint-order:stroke fill markers"
           d="M 8266.4277,1534.2148 V 1382.418 h -53.3808 v 151.5508 a 512,512 0 0 0 28.4062,2.0312 512,512 0 0 0 24.9746,-1.7852 z" /><path
           id="path1373"
           style="color:#000000;fill:#3a3a3a;fill-opacity:0.208254;stroke-linecap:round;-inkscape-stroke:none;paint-order:stroke fill markers"
           d="M 8327.0488,1528.0195 V 1382.418 h -53.3789 v 151.2773 a 512,512 0 0 0 53.375,-5.6758 z" /><path
           id="path1375"
           style="color:#000000;fill:#3a3a3a;fill-opacity:0.208254;stroke-linecap:round;-inkscape-stroke:none;paint-order:stroke fill markers"
           d="M 8387.6719,1514.5234 V 1382.418 h -53.3809 v 144.0254 a 512,512 0 0 0 53.3809,-11.92 z" /><path
           id="path1377"
           style="color:#000000;fill:#3a3a3a;fill-opacity:0.208254;stroke-linecap:round;-inkscape-stroke:none;paint-order:stroke fill markers"
           d="M 8448.2949,1491.9141 V 1382.418 h -53.3808 v 129.4043 a 512,512 0 0 0 53.3808,-19.9082 z" /><path
           id="path1379"
           style="color:#000000;fill:#3a3a3a;fill-opacity:0.208254;stroke-linecap:round;-inkscape-stroke:none;paint-order:stroke fill markers"
           d="m 8508.916,1459.8242 v -77.4062 h -53.3789 v 106.5547 a 512,512 0 0 0 53.3789,-29.1485 z" /><path
           id="path1381"
           style="color:#000000;fill:#3a3a3a;fill-opacity:0.208254;stroke-linecap:round;-inkscape-stroke:none;paint-order:stroke fill markers"
           d="m 8569.5391,1416.334 v -33.916 h -53.3809 v 73.4531 a 512,512 0 0 0 53.377,-39.5332 z" /><path
           id="path1383"
           style="color:#000000;fill:#3a3a3a;fill-opacity:0.208254;stroke-linecap:round;-inkscape-stroke:none;paint-order:stroke fill markers"
           d="m 8656.4688,1321.7891 h -79.6876 v 53.3867 h 35.7286 a 512,512 0 0 0 43.9512,-53.377 512,512 0 0 0 0.01,-0.01 z" /><path
           id="path1385"
           style="color:#000000;fill:#3a3a3a;fill-opacity:0.208254;stroke-linecap:round;-inkscape-stroke:none;paint-order:stroke fill markers"
           d="m 8693.8223,1261.1621 h -117.0411 v 53.3848 h 85.1075 a 512,512 0 0 0 31.9336,-53.3848 z" /><path
           id="path1388"
           style="color:#000000;fill:#3a3a3a;fill-opacity:0.208254;stroke-linecap:round;-inkscape-stroke:none;paint-order:stroke fill markers"
           d="m 8720.6699,1200.5352 h -143.8887 v 53.3847 h 120.9961 a 512,512 0 0 0 22.8907,-53.3809 z" /><path
           id="path1390"
           style="color:#000000;fill:#3a3a3a;fill-opacity:0.208254;stroke-linecap:round;-inkscape-stroke:none;paint-order:stroke fill markers"
           d="m 8738.877,1139.9062 h -162.0958 v 53.3868 h 146.5899 a 512,512 0 0 0 15.5059,-53.3848 z" /><path
           id="path1392"
           style="color:#000000;fill:#3a3a3a;fill-opacity:0.208254;stroke-linecap:round;-inkscape-stroke:none;paint-order:stroke fill markers"
           d="m 8737.5,897.39648 h -160.7188 v 53.38477 h 164.0938 a 3.6210749,3.6210749 0 0 1 3.6211,3.62109 3.6210749,3.6210749 0 0 1 -3.6211,3.6211 h -164.0938 v 53.38676 h 164.0938 a 3.6210749,3.6210749 0 0 1 3.6211,3.621 3.6210749,3.6210749 0 0 1 -3.6211,3.6211 h -164.0938 v 53.3848 h 164.0938 a 3.6210749,3.6210749 0 0 1 3.6211,3.6211 3.6210749,3.6210749 0 0 1 -3.6211,3.6211 h -164.0938 v 53.3848 h 163.6719 a 512,512 0 0 0 8.8633,-50.8301 512,512 0 0 0 4.1367,-57.8301 512,512 0 0 0 -3.8828,-61.67188 512,512 0 0 0 -0.5,-4.05468 512,512 0 0 0 -11.5683,-60.8711 512,512 0 0 0 0,-0.006 z" /><path
           id="path1394"
           style="color:#000000;fill:#3a3a3a;fill-opacity:0.208254;stroke-linecap:round;-inkscape-stroke:none;paint-order:stroke fill markers"
           d="m 8717.8359,836.76953 h -141.0547 v 53.38477 h 158.7149 a 512,512 0 0 0 0,-0.01 512,512 0 0 0 -17.6563,-53.375 z" /><path
           id="path1396"
           style="color:#000000;fill:#3a3a3a;fill-opacity:0.208254;stroke-linecap:round;-inkscape-stroke:none;paint-order:stroke fill markers"
           d="m 8689.3125,776.14062 h -112.5313 v 53.38672 h 138.2618 a 512,512 0 0 0 0,-0.008 512,512 0 0 0 -25.7207,-53.36914 512,512 0 0 0 -0.01,-0.01 z" /><path
           id="path1398"
           style="color:#000000;fill:#3a3a3a;fill-opacity:0.208254;stroke-linecap:round;-inkscape-stroke:none;paint-order:stroke fill markers"
           d="m 8576.7812,637.29297 v 131.60547 h 108.4278 a 512,512 0 0 0 0,-0.002 512,512 0 0 0 -108.4278,-131.60351 z" /><path
           id="path1400"
           style="color:#000000;fill:#3a3a3a;fill-opacity:0.208254;stroke-linecap:round;-inkscape-stroke:none;paint-order:stroke fill markers"
           d="m 8516.1582,592.11719 v 176.78125 h 53.3809 V 631.04492 a 512,512 0 0 0 -0.01,-0.004 512,512 0 0 0 -53.375,-38.92383 z" /><path
           id="path1402"
           style="color:#000000;fill:#3a3a3a;fill-opacity:0.208254;stroke-linecap:round;-inkscape-stroke:none;paint-order:stroke fill markers"
           d="m 8455.5371,559.01953 v 209.87891 h 53.3789 V 587.53125 a 512,512 0 0 0 -53.375,-28.50977 512,512 0 0 0 0,-0.002 z" /><path
           id="path1404"
           style="color:#000000;fill:#3a3a3a;fill-opacity:0.208254;stroke-linecap:round;-inkscape-stroke:none;paint-order:stroke fill markers"
           d="m 8241.4531,512 a 512,512 0 0 0 -72.0019,5.14844 512,512 0 0 0 -69.9024,15.08203 512,512 0 0 0 -0.6601,0.14258 512,512 0 0 0 -67.709,24.99218 v 211.53321 h 53.3808 V 552.23633 a 3.6210749,3.6210749 0 0 1 3.6211,-3.6211 3.6210749,3.6210749 0 0 1 3.6211,3.6211 v 216.66211 h 53.3789 V 552.23633 a 3.6210749,3.6210749 0 0 1 3.6211,-3.6211 3.6210749,3.6210749 0 0 1 3.6211,3.6211 v 216.66211 h 53.3809 V 552.23633 a 3.6210749,3.6210749 0 0 1 3.6211,-3.6211 3.6210749,3.6210749 0 0 1 3.6211,3.6211 v 216.66211 h 53.3808 V 552.23633 a 3.6210749,3.6210749 0 0 1 3.6211,-3.6211 3.6210749,3.6210749 0 0 1 3.6211,3.6211 v 216.66211 h 53.3789 V 552.23633 a 3.6210749,3.6210749 0 0 1 3.6211,-3.6211 3.6210749,3.6210749 0 0 1 3.6211,3.6211 v 216.66211 h 53.3809 V 552.23633 a 3.6210749,3.6210749 0 0 1 3.6211,-3.6211 3.6210749,3.6210749 0 0 1 3.6211,3.6211 v 216.66211 h 53.3808 V 555.81055 a 512,512 0 0 0 -66.2597,-23.99024 512,512 0 0 0 -1.002,-0.27734 512,512 0 0 0 -68.4238,-14.49219 512,512 0 0 0 -1.0664,-0.13086 A 512,512 0 0 0 8241.4531,512 Z" /></g><rect
         style="fill:#8bbc3f;fill-opacity:1;stroke:none;stroke-width:4;stroke-linecap:round;paint-order:stroke fill markers"
         id="rect1408"
         width="53.068123"
         height="53.071899"
         x="8540.9902"
         y="1280.3525" /><rect
         style="fill:#8bbc3f;fill-opacity:1;stroke:none;stroke-width:4;stroke-linecap:round;paint-order:stroke fill markers"
         id="rect1410"
         width="53.068123"
         height="53.071899"
         x="8420.4561"
         y="1340.6262" /><rect
         style="fill:#8bbc3f;fill-opacity:1;stroke:none;stroke-width:4;stroke-linecap:round;paint-order:stroke fill markers"
         id="rect1412"
         width="53.068123"
         height="53.071899"
         x="8420.4561"
         y="1340.6262" /><path
         fill="#eb1f52"
         d="m 8480.5412,1220.5941 v 58.8472 a 1.018473,1.018473 0 0 1 -1.0186,1.0183 l -58.8987,0.053 a 1.018473,1.018473 0 0 0 -1.0185,1.0186 l 0.1037,58.7606 a 1.018473,1.018473 0 0 1 -1.0188,1.0186 l -58.9846,0.07 a 1.018473,1.018473 0 0 0 -1.0188,1.0184 l -0.1036,59.175 a 1.018473,1.018473 0 0 1 -1.0186,1.0183 l -58.9848,-0.087 a 1.018473,1.018473 0 0 1 -1.0187,-1.0184 l -0.034,-59.0714 a 1.018473,1.018473 0 0 0 -1.0186,-1.0185 l -58.8818,-0.1036 a 1.018473,1.018473 0 0 1 -1.0183,-1.0182 l -0.1558,-58.7954 a 1.018473,1.018473 0 0 0 -1.0188,-1.0183 l -58.6571,0.053 a 1.018473,1.018473 0 0 1 -1.0183,-1.0186 l -0.034,-58.916 a 1.018473,1.018473 0 0 0 -1.0185,-1.0186 h -59.0562 a 1.018473,1.018473 0 0 1 -1.0183,-1.0184 l 0.09,-58.9505 a 1.018473,1.018473 0 0 0 -1.0183,-1.0186 l -58.9335,-0.1553 a 1.018473,1.018473 0 0 1 -1.0184,-1.0184 l -0.034,-58.7951 a 1.018473,1.018473 0 0 0 -1.018,-1.0186 l -58.8473,0.087 a 1.018473,1.018473 0 0 1 -1.0183,-1.0184 l 0.022,-242.0514 a 1.018473,1.018473 0 0 1 1.0183,-1.0184 l 58.8471,0.017 a 1.018473,1.018473 0 0 0 1.0187,-1.0185 v -58.847 a 1.018473,1.018473 0 0 1 1.0183,-1.0185 l 180.943,-0.017 a 1.018473,1.018473 0 0 1 1.0184,1.0185 l 0.09,58.8643 a 1.018473,1.018473 0 0 0 1.0184,1.0185 h 58.7779 a 1.018473,1.018473 0 0 1 1.0186,1.0184 v 58.968 a 1.018473,1.018473 0 0 0 1.0186,1.0184 l 58.8122,-0.07 a 1.018473,1.018473 0 0 0 1.0188,-1.0186 l -0.022,-58.916 a 1.018473,1.018473 0 0 1 1.0186,-1.0185 l 58.8468,0.017 a 1.018473,1.018473 0 0 0 1.0185,-1.0184 l 0.034,-58.8643 a 1.018473,1.018473 0 0 1 1.0182,-1.0185 l 181.1847,0.017 a 1.018473,1.018473 0 0 1 1.0183,1.0185 l -0.053,58.8642 a 1.018473,1.018473 0 0 0 1.0186,1.0185 l 58.9162,-0.017 a 1.018473,1.018473 0 0 1 1.0182,1.0185 l -0.022,241.9995 a 1.018473,1.018473 0 0 1 -1.0186,1.0186 l -58.7952,-0.017 a 1.018473,1.018473 0 0 0 -1.0183,1.0184 l -0.022,58.6918 a 1.018473,1.018473 0 0 1 -1.0182,1.0182 l -59.1579,0.3109 a 1.018473,1.018473 0 0 0 -1.0184,1.0184 l -0.051,58.8815 a 1.018473,1.018473 0 0 1 -1.0184,1.0185 h -58.7969 a 1.018473,1.018473 0 0 0 -1.0184,1.0184 z M 8114.8576,913.5333 a 1.087522,1.087522 0 0 1 -1.0874,1.0875 h -58.8816 a 1.087522,1.087522 0 0 0 -1.0876,1.0875 l -0.034,119.8173 a 1.087522,1.087522 0 0 0 1.0876,1.0876 h 59.0714 a 1.087522,1.087522 0 0 0 1.0872,-1.0876 L 8114.84,915.6393 a 1.087522,1.087522 0 0 1 1.0874,-1.0876 l 58.8472,0.1206 a 1.087522,1.087522 0 0 0 1.0874,-1.0874 l 0.022,-58.9334 a 1.087522,1.087522 0 0 0 -1.0873,-1.0874 l -59.0027,-0.069 a 1.087522,1.087522 0 0 0 -1.0874,1.0875 z"
         id="path1414"
         style="fill:url(#radialGradient7146);fill-opacity:1;stroke-width:1.72622" /><rect
         style="fill:#8bbc3f;fill-opacity:1;stroke:none;stroke-width:4;stroke-linecap:round;paint-order:stroke fill markers"
         id="rect1416"
         width="53.068123"
         height="53.071899"
         x="8058.8525"
         y="1280.3527" /></g></g></svg>
