<?xml version="1.0" encoding="UTF-8" standalone="no"?>
<!DOCTYPE svg PUBLIC "-//W3C//DTD SVG 1.1//EN" "http://www.w3.org/Graphics/SVG/1.1/DTD/svg11.dtd">
<svg xmlns="http://www.w3.org/2000/svg" version="1.1" viewBox="0.00 0.00 1024.00 1024.00">
<g stroke-width="2.00" fill="none" stroke-linecap="butt">
<path stroke="#363636" vector-effect="non-scaling-stroke" d="
  M 1019.23 581.47
  Q 1017.02 579.26 1016.34 578.17
  Q 1010.32 568.48 990.63 535.67
  Q 990.36 535.22 989.84 535.24
  L 989.28 535.26"
/>
<path stroke="#3d673f" vector-effect="non-scaling-stroke" d="
  M 989.28 535.26
  L 989.40 532.51"
/>
<path stroke="#437545" vector-effect="non-scaling-stroke" d="
  M 989.40 532.51
  C 1001.81 214.41 708.44 -27.49 397.94 48.03
  C 254.73 82.85 134.36 184.10 74.94 318.93
  C 18.48 447.03 20.94 593.18 81.61 719.45
  Q 81.84 719.94 81.35 720.18
  L 50.98 734.71"
/>
<path stroke="#46a24a" vector-effect="non-scaling-stroke" d="
  M 989.40 532.51
  Q 988.59 532.38 988.32 531.93
  Q 924.46 426.64 860.50 321.16"
/>
<path stroke="#9b675a" vector-effect="non-scaling-stroke" d="
  M 860.50 321.16
  L 838.01 320.97"
/>
<path stroke="#46a24a" vector-effect="non-scaling-stroke" d="
  M 838.01 320.97
  L 827.30 320.73
  Q 826.76 320.72 826.48 320.24
  L 781.22 241.82"
/>
<path stroke="#9b675a" vector-effect="non-scaling-stroke" d="
  M 781.22 241.82
  L 705.77 241.80"
/>
<path stroke="#46a24a" vector-effect="non-scaling-stroke" d="
  M 705.77 241.80
  L 702.04 241.80"
/>
<path stroke="#9b675a" vector-effect="non-scaling-stroke" d="
  M 702.04 241.80
  L 627.11 241.81
  Q 626.55 241.81 626.55 242.37
  L 626.55 317.34"
/>
<path stroke="#46a24a" vector-effect="non-scaling-stroke" d="
  M 626.55 317.34
  Q 626.18 319.01 626.54 321.00"
/>
<path stroke="#9b675a" vector-effect="non-scaling-stroke" d="
  M 626.54 321.00
  L 626.52 396.48"
/>
<path stroke="#46a24a" vector-effect="non-scaling-stroke" d="
  M 626.52 396.48
  L 626.60 399.47
  Q 626.61 399.89 626.19 399.93
  L 623.01 400.22"
/>
<path stroke="#9b675a" vector-effect="non-scaling-stroke" d="
  M 623.01 400.22
  L 547.36 400.15"
/>
<path stroke="#46a24a" vector-effect="non-scaling-stroke" d="
  M 547.36 400.15
  L 543.81 400.37"
/>
<path stroke="#9b675a" vector-effect="non-scaling-stroke" d="
  M 543.81 400.37
  L 506.34 399.97"
/>
<path stroke="#46a24a" vector-effect="non-scaling-stroke" d="
  M 506.34 399.97
  L 464.82 321.42"
/>
<path stroke="#9b675a" vector-effect="non-scaling-stroke" d="
  M 464.82 321.42
  Q 464.66 321.24 464.45 321.11
  Q 464.28 321.00 464.02 321.00
  Q 447.40 321.01 431.16 320.98"
/>
<path stroke="#46a24a" vector-effect="non-scaling-stroke" d="
  M 431.16 320.98
  L 385.48 241.83"
/>
<path stroke="#9b675a" vector-effect="non-scaling-stroke" d="
  M 385.48 241.83
  L 309.98 241.80"
/>
<path stroke="#46a24a" vector-effect="non-scaling-stroke" d="
  M 309.98 241.80
  Q 308.40 242.33 306.31 241.77"
/>
<path stroke="#876456" vector-effect="non-scaling-stroke" d="
  M 306.31 241.77
  L 231.23 241.76
  A 0.49 0.48 0.0 0 0 230.74 242.24
  L 230.77 317.50"
/>
<path stroke="#46a24a" vector-effect="non-scaling-stroke" d="
  M 230.77 317.50
  L 230.77 320.99"
/>
<path stroke="#876456" vector-effect="non-scaling-stroke" d="
  M 230.77 320.99
  L 230.77 396.50"
/>
<path stroke="#46a24a" vector-effect="non-scaling-stroke" d="
  M 230.77 396.50
  L 230.74 400.23"
/>
<path stroke="#876456" vector-effect="non-scaling-stroke" d="
  M 230.74 400.23
  L 230.78 475.75"
/>
<path stroke="#46a24a" vector-effect="non-scaling-stroke" d="
  M 230.78 475.75
  L 231.19 479.24"
/>
<path stroke="#876456" vector-effect="non-scaling-stroke" d="
  M 231.19 479.24
  Q 230.75 479.41 230.75 479.75
  Q 230.73 517.52 230.78 554.82"
/>
<path stroke="#46a24a" vector-effect="non-scaling-stroke" d="
  M 230.78 554.82
  L 230.75 558.51"
/>
<path stroke="#876456" vector-effect="non-scaling-stroke" d="
  M 230.75 558.51
  L 230.76 633.43
  A 0.57 0.57 0.0 0 0 231.33 634.00
  Q 245.03 633.99 258.84 634.01
  Q 261.22 634.02 263.37 632.99
  Q 284.61 622.85 305.80 612.68
  Q 306.14 612.52 306.27 612.17
  Q 306.36 611.94 306.57 611.79"
/>
<path stroke="#46a24a" vector-effect="non-scaling-stroke" d="
  M 306.57 611.79
  Q 308.29 611.70 310.05 610.62"
/>
<path stroke="#876456" vector-effect="non-scaling-stroke" d="
  M 310.05 610.62
  L 385.58 574.41"
/>
<path stroke="#46a24a" vector-effect="non-scaling-stroke" d="
  M 385.58 574.41
  L 389.17 572.69"
/>
<path stroke="#876456" vector-effect="non-scaling-stroke" d="
  M 389.17 572.69
  L 418.05 558.73"
/>
<path stroke="#46a24a" vector-effect="non-scaling-stroke" d="
  M 418.05 558.73
  L 424.84 554.92"
/>
<path stroke="#9b675a" vector-effect="non-scaling-stroke" d="
  M 424.84 554.92
  Q 425.96 555.09 427.25 554.49
  Q 436.46 550.22 464.50 536.61"
/>
<path stroke="#46a24a" vector-effect="non-scaling-stroke" d="
  M 464.50 536.61
  L 468.30 534.87"
/>
<path stroke="#9b675a" vector-effect="non-scaling-stroke" d="
  M 468.30 534.87
  L 503.61 517.97
  A 0.21 0.20 8.7 0 1 503.85 518.29
  L 469.68 554.79"
/>
<path stroke="#46a24a" vector-effect="non-scaling-stroke" d="
  M 469.68 554.79
  L 464.54 560.19"
/>
<path stroke="#876456" vector-effect="non-scaling-stroke" d="
  M 464.54 560.19
  L 395.61 633.94"
/>
<path stroke="#46a24a" vector-effect="non-scaling-stroke" d="
  M 395.61 633.94
  Q 393.56 635.44 393.10 637.63"
/>
<path stroke="#876456" vector-effect="non-scaling-stroke" d="
  M 393.10 637.63
  Q 390.96 637.97 389.24 641.25"
/>
<path stroke="#46a24a" vector-effect="non-scaling-stroke" d="
  M 389.24 641.25
  Q 387.02 642.55 385.50 644.71"
/>
<path stroke="#876456" vector-effect="non-scaling-stroke" d="
  M 385.50 644.71
  L 322.16 712.70"
/>
<path stroke="#46a24a" vector-effect="non-scaling-stroke" d="
  M 322.16 712.70
  L 185.06 860.45"
/>
<path stroke="#3f7041" vector-effect="non-scaling-stroke" d="
  M 185.06 860.45
  L 161.91 885.60"
/>
<path stroke="#876456" vector-effect="non-scaling-stroke" d="
  M 227.22 321.71
  A 0.71 0.71 0.0 0 0 226.51 321.00
  L 152.21 321.00
  A 0.71 0.71 0.0 0 0 151.50 321.71
  L 151.50 395.79
  A 0.71 0.71 0.0 0 0 152.21 396.50
  L 226.51 396.50
  A 0.71 0.71 0.0 0 0 227.22 395.79
  L 227.22 321.71"
/>
<path stroke="#9b675a" vector-effect="non-scaling-stroke" d="
  M 623.00 321.52
  A 0.52 0.52 0.0 0 0 622.48 321.00
  L 547.78 321.00
  A 0.52 0.52 0.0 0 0 547.26 321.52
  L 547.26 395.98
  A 0.52 0.52 0.0 0 0 547.78 396.50
  L 622.48 396.50
  A 0.52 0.52 0.0 0 0 623.00 395.98
  L 623.00 321.52"
/>
<path stroke="#876456" vector-effect="non-scaling-stroke" d="
  M 227.24 400.89
  A 0.64 0.64 0.0 0 0 226.60 400.25
  L 152.14 400.25
  A 0.64 0.64 0.0 0 0 151.50 400.89
  L 151.50 475.11
  A 0.64 0.64 0.0 0 0 152.14 475.75
  L 226.60 475.75
  A 0.64 0.64 0.0 0 0 227.24 475.11
  L 227.24 400.89"
/>
<path stroke="#876456" vector-effect="non-scaling-stroke" d="
  M 227.24 479.53
  A 0.27 0.27 0.0 0 0 226.97 479.26
  L 151.77 479.26
  A 0.27 0.27 0.0 0 0 151.50 479.53
  L 151.50 554.49
  A 0.27 0.27 0.0 0 0 151.77 554.76
  L 226.97 554.76
  A 0.27 0.27 0.0 0 0 227.24 554.49
  L 227.24 479.53"
/>
<path stroke="#8dc645" vector-effect="non-scaling-stroke" d="
  M 203.08 712.31
  A 12.60 12.60 0.0 0 0 190.48 699.71
  A 12.60 12.60 0.0 0 0 177.88 712.31
  A 12.60 12.60 0.0 0 0 190.48 724.91
  A 12.60 12.60 0.0 0 0 203.08 712.31"
/>
<path stroke="#8dc645" vector-effect="non-scaling-stroke" d="
  M 106.21 757.19
  A 12.59 12.59 0.0 0 0 93.62 744.60
  A 12.59 12.59 0.0 0 0 81.03 757.19
  A 12.59 12.59 0.0 0 0 93.62 769.78
  A 12.59 12.59 0.0 0 0 106.21 757.19"
/>
<path stroke="#8dc645" vector-effect="non-scaling-stroke" d="
  M 199.64 790.29
  A 12.58 12.58 0.0 0 0 187.06 777.71
  A 12.58 12.58 0.0 0 0 174.48 790.29
  A 12.58 12.58 0.0 0 0 187.06 802.87
  A 12.58 12.58 0.0 0 0 199.64 790.29"
/>
<path stroke="#955954" vector-effect="non-scaling-stroke" d="
  M 705.77 241.80
  L 705.79 316.81
  Q 705.79 317.26 706.24 317.26
  L 780.75 317.24
  A 0.50 0.50 0.0 0 0 781.25 316.74
  L 781.22 241.82"
/>
<path stroke="#955954" vector-effect="non-scaling-stroke" d="
  M 838.01 320.97
  L 785.91 320.99
  A 1.19 1.19 0.0 0 0 784.72 322.19
  L 785.00 395.91
  A 0.60 0.59 0.0 0 0 785.60 396.50
  L 859.75 396.50
  A 0.76 0.76 0.0 0 0 860.51 395.74
  L 860.50 321.16"
/>
<path stroke="#39633b" vector-effect="non-scaling-stroke" d="
  M 989.28 535.26
  C 980.38 703.60 884.23 856.96 734.20 935.01
  C 553.17 1029.18 334.73 999.85 185.06 860.45"
/>
<path stroke="#815650" vector-effect="non-scaling-stroke" d="
  M 322.16 712.70
  L 322.45 712.96
  A 1.17 1.16 -24.3 0 0 323.22 713.25
  L 384.75 713.25
  A 0.75 0.75 0.0 0 0 385.50 712.50
  L 385.50 644.71"
/>
<path stroke="#815650" vector-effect="non-scaling-stroke" d="
  M 389.24 641.25
  L 389.24 712.72
  A 0.53 0.53 0.0 0 0 389.77 713.25
  L 464.00 713.25
  A 0.75 0.75 0.0 0 0 464.75 712.50
  L 464.75 638.26
  Q 464.75 637.77 464.26 637.77
  L 393.10 637.63"
/>
<path stroke="#815650" vector-effect="non-scaling-stroke" d="
  M 395.61 633.94
  L 463.93 633.99
  A 0.60 0.60 0.0 0 0 464.53 633.39
  L 464.54 560.19"
/>
<path stroke="#955954" vector-effect="non-scaling-stroke" d="
  M 469.68 554.79
  L 543.04 554.68
  A 0.71 0.70 0.0 0 0 543.75 553.98
  L 543.75 479.75
  A 0.50 0.50 0.0 0 0 543.25 479.25
  L 468.56 479.25
  A 0.27 0.26 90.0 0 0 468.30 479.52
  L 468.30 534.87"
/>
<path stroke="#955954" vector-effect="non-scaling-stroke" d="
  M 464.50 536.61
  L 464.60 479.62
  A 0.37 0.37 0.0 0 0 464.23 479.25
  L 390.00 479.25
  A 1.00 1.00 0.0 0 0 389.00 480.25
  L 389.00 553.97
  A 0.91 0.90 0.3 0 0 389.90 554.87
  L 424.84 554.92"
/>
<path stroke="#815650" vector-effect="non-scaling-stroke" d="
  M 418.05 558.73
  L 389.61 558.58
  Q 389.07 558.57 389.08 559.11
  L 389.17 572.69"
/>
<path stroke="#815650" vector-effect="non-scaling-stroke" d="
  M 385.58 574.41
  L 385.49 558.99
  Q 385.49 558.50 385.00 558.50
  L 310.74 558.50
  Q 310.05 558.50 310.05 559.18
  L 310.05 610.62"
/>
<path stroke="#815650" vector-effect="non-scaling-stroke" d="
  M 306.57 611.79
  Q 306.21 611.37 306.21 610.99
  Q 306.29 585.07 306.24 559.03
  Q 306.24 558.51 305.72 558.51
  L 230.75 558.51"
/>
<path stroke="#815650" vector-effect="non-scaling-stroke" d="
  M 230.78 554.82
  L 305.84 554.82
  A 0.41 0.41 0.0 0 0 306.25 554.41
  L 306.25 479.76
  A 0.52 0.52 0.0 0 0 305.73 479.24
  L 231.19 479.24"
/>
<path stroke="#815650" vector-effect="non-scaling-stroke" d="
  M 230.78 475.75
  L 305.74 475.75
  A 0.51 0.51 0.0 0 0 306.25 475.24
  L 306.25 400.75
  Q 306.25 400.24 305.73 400.24
  L 230.74 400.23"
/>
<path stroke="#815650" vector-effect="non-scaling-stroke" d="
  M 230.77 396.50
  L 305.74 396.50
  A 0.51 0.51 0.0 0 0 306.25 395.99
  L 306.25 321.51
  A 0.52 0.52 0.0 0 0 305.73 320.99
  L 230.77 320.99"
/>
<path stroke="#815650" vector-effect="non-scaling-stroke" d="
  M 230.77 317.50
  L 305.27 317.50
  A 1.03 1.02 90.0 0 0 306.29 316.47
  L 306.31 241.77"
/>
<path stroke="#955954" vector-effect="non-scaling-stroke" d="
  M 309.98 241.80
  L 310.00 316.21
  Q 310.00 317.43 311.21 317.42
  L 385.03 317.18
  A 0.47 0.47 0.0 0 0 385.50 316.71
  L 385.48 241.83"
/>
<path stroke="#955954" vector-effect="non-scaling-stroke" d="
  M 431.16 320.98
  L 389.77 320.99
  A 0.77 0.77 0.0 0 0 389.00 321.76
  L 389.00 395.75
  A 0.75 0.75 0.0 0 0 389.75 396.50
  L 463.73 396.50
  A 1.12 1.11 90.0 0 0 464.84 395.38
  L 464.82 321.42"
/>
<path stroke="#955954" vector-effect="non-scaling-stroke" d="
  M 506.34 399.97
  L 468.81 400.12
  A 0.58 0.57 -0.5 0 0 468.24 400.69
  L 468.25 475.25
  A 0.50 0.50 0.0 0 0 468.75 475.75
  L 543.22 475.75
  A 0.58 0.57 -90.0 0 0 543.79 475.17
  L 543.81 400.37"
/>
<path stroke="#955954" vector-effect="non-scaling-stroke" d="
  M 547.36 400.15
  L 547.40 475.39
  A 0.36 0.35 -90.0 0 0 547.75 475.75
  L 621.76 475.75
  A 1.25 1.25 0.0 0 0 623.01 474.50
  L 623.01 400.22"
/>
<path stroke="#955954" vector-effect="non-scaling-stroke" d="
  M 626.52 396.48
  L 701.42 396.48
  Q 702.00 396.48 702.01 395.89
  L 702.28 321.72
  A 0.72 0.72 0.0 0 0 701.56 321.00
  L 626.54 321.00"
/>
<path stroke="#955954" vector-effect="non-scaling-stroke" d="
  M 626.55 317.34
  L 701.55 317.32
  A 0.56 0.55 0.0 0 0 702.11 316.77
  L 702.04 241.80"
/>
<path stroke="#955954" vector-effect="non-scaling-stroke" d="
  M 385.5650 321.3559
  A 0.48 0.48 0.0 0 0 385.0858 320.8751
  L 310.5459 320.7450
  A 0.48 0.48 0.0 0 0 310.0651 321.2242
  L 309.9350 395.7441
  A 0.48 0.48 0.0 0 0 310.4142 396.2249
  L 384.9541 396.3550
  A 0.48 0.48 0.0 0 0 385.4349 395.8758
  L 385.5650 321.3559"
/>
<path stroke="#955954" vector-effect="non-scaling-stroke" d="
  M 781.25 321.60
  A 0.60 0.60 0.0 0 0 780.65 321.00
  L 706.35 321.00
  A 0.60 0.60 0.0 0 0 705.75 321.60
  L 705.75 395.90
  A 0.60 0.60 0.0 0 0 706.35 396.50
  L 780.65 396.50
  A 0.60 0.60 0.0 0 0 781.25 395.90
  L 781.25 321.60"
/>
<path stroke="#955954" vector-effect="non-scaling-stroke" d="
  M 464.7048 400.9061
  A 0.59 0.59 0.0 0 0 464.1158 400.3150
  L 389.6559 400.1851
  A 0.59 0.59 0.0 0 0 389.0649 400.7740
  L 388.9352 475.0939
  A 0.59 0.59 0.0 0 0 389.5242 475.6850
  L 463.9841 475.8149
  A 0.59 0.59 0.0 0 0 464.5751 475.2260
  L 464.7048 400.9061"
/>
<path stroke="#955954" vector-effect="non-scaling-stroke" d="
  M 702.12 400.83
  A 0.59 0.59 0.0 0 0 701.53 400.24
  L 627.09 400.24
  A 0.59 0.59 0.0 0 0 626.50 400.83
  L 626.50 475.15
  A 0.59 0.59 0.0 0 0 627.09 475.74
  L 701.53 475.74
  A 0.59 0.59 0.0 0 0 702.12 475.15
  L 702.12 400.83"
/>
<path stroke="#955954" vector-effect="non-scaling-stroke" d="
  M 781.25 400.68
  A 0.43 0.43 0.0 0 0 780.82 400.25
  L 706.18 400.25
  A 0.43 0.43 0.0 0 0 705.75 400.68
  L 705.75 475.32
  A 0.43 0.43 0.0 0 0 706.18 475.75
  L 780.82 475.75
  A 0.43 0.43 0.0 0 0 781.25 475.32
  L 781.25 400.68"
/>
<path stroke="#955954" vector-effect="non-scaling-stroke" d="
  M 860.50 400.81
  A 0.56 0.56 0.0 0 0 859.94 400.25
  L 785.48 400.25
  A 0.56 0.56 0.0 0 0 784.92 400.81
  L 784.92 475.19
  A 0.56 0.56 0.0 0 0 785.48 475.75
  L 859.94 475.75
  A 0.56 0.56 0.0 0 0 860.50 475.19
  L 860.50 400.81"
/>
<path stroke="#815650" vector-effect="non-scaling-stroke" d="
  M 385.50 400.68
  A 0.43 0.43 0.0 0 0 385.07 400.25
  L 310.43 400.25
  A 0.43 0.43 0.0 0 0 310.00 400.68
  L 310.00 475.32
  A 0.43 0.43 0.0 0 0 310.43 475.75
  L 385.07 475.75
  A 0.43 0.43 0.0 0 0 385.50 475.32
  L 385.50 400.68"
/>
<path stroke="#815650" vector-effect="non-scaling-stroke" d="
  M 385.50 479.68
  A 0.42 0.42 0.0 0 0 385.08 479.26
  L 310.42 479.26
  A 0.42 0.42 0.0 0 0 310.00 479.68
  L 310.00 554.34
  A 0.42 0.42 0.0 0 0 310.42 554.76
  L 385.08 554.76
  A 0.42 0.42 0.0 0 0 385.50 554.34
  L 385.50 479.68"
/>
<path stroke="#955954" vector-effect="non-scaling-stroke" d="
  M 547.57 554.24
  A 0.64 0.64 0.0 0 0 548.21 554.88
  L 622.36 554.79
  A 0.64 0.64 0.0 0 0 623.00 554.15
  L 623.00 479.89
  A 0.64 0.64 0.0 0 0 622.36 479.25
  L 547.90 479.25
  A 0.64 0.64 0.0 0 0 547.26 479.89
  L 547.57 554.24"
/>
<path stroke="#955954" vector-effect="non-scaling-stroke" d="
  M 702.1151 479.8540
  A 0.67 0.67 0.0 0 0 701.4440 479.1852
  L 627.1041 479.3149
  A 0.67 0.67 0.0 0 0 626.4352 479.9861
  L 626.5649 554.2660
  A 0.67 0.67 0.0 0 0 627.2360 554.9348
  L 701.5759 554.8051
  A 0.67 0.67 0.0 0 0 702.2448 554.1339
  L 702.1151 479.8540"
/>
<path stroke="#955954" vector-effect="non-scaling-stroke" d="
  M 781.25 480.09
  A 0.59 0.59 0.0 0 0 780.66 479.50
  L 706.34 479.50
  A 0.59 0.59 0.0 0 0 705.75 480.09
  L 705.75 554.41
  A 0.59 0.59 0.0 0 0 706.34 555.00
  L 780.66 555.00
  A 0.59 0.59 0.0 0 0 781.25 554.41
  L 781.25 480.09"
/>
<path stroke="#955954" vector-effect="non-scaling-stroke" d="
  M 860.5648 479.9361
  A 0.62 0.62 0.0 0 0 859.9458 479.3150
  L 785.5260 479.1851
  A 0.62 0.62 0.0 0 0 784.9049 479.8040
  L 784.7752 554.0839
  A 0.62 0.62 0.0 0 0 785.3942 554.7050
  L 859.8140 554.8349
  A 0.62 0.62 0.0 0 0 860.4351 554.2160
  L 860.5648 479.9361"
/>
<path stroke="#955954" vector-effect="non-scaling-stroke" d="
  M 781.25 559.08
  A 0.58 0.58 0.0 0 0 780.67 558.50
  L 706.33 558.50
  A 0.58 0.58 0.0 0 0 705.75 559.08
  L 705.75 633.42
  A 0.58 0.58 0.0 0 0 706.33 634.00
  L 780.67 634.00
  A 0.58 0.58 0.0 0 0 781.25 633.42
  L 781.25 559.08"
/>
<path stroke="#955954" vector-effect="non-scaling-stroke" d="
  M 543.75 558.94
  A 0.44 0.44 0.0 0 0 543.31 558.50
  L 468.69 558.50
  A 0.44 0.44 0.0 0 0 468.25 558.94
  L 468.25 633.56
  A 0.44 0.44 0.0 0 0 468.69 634.00
  L 543.31 634.00
  A 0.44 0.44 0.0 0 0 543.75 633.56
  L 543.75 558.94"
/>
<path stroke="#955954" vector-effect="non-scaling-stroke" d="
  M 622.9348 558.8341
  A 0.40 0.40 0.0 0 0 622.5341 558.4348
  L 547.7942 558.5653
  A 0.40 0.40 0.0 0 0 547.3949 558.9660
  L 547.5252 633.6659
  A 0.40 0.40 0.0 0 0 547.9259 634.0652
  L 622.6658 633.9347
  A 0.40 0.40 0.0 0 0 623.0651 633.5340
  L 622.9348 558.8341"
/>
<path stroke="#955954" vector-effect="non-scaling-stroke" d="
  M 702.16 559.06
  A 0.56 0.56 0.0 0 0 701.60 558.50
  L 627.06 558.50
  A 0.56 0.56 0.0 0 0 626.50 559.06
  L 626.50 633.44
  A 0.56 0.56 0.0 0 0 627.06 634.00
  L 701.60 634.00
  A 0.56 0.56 0.0 0 0 702.16 633.44
  L 702.16 559.06"
/>
<path stroke="#955954" vector-effect="non-scaling-stroke" d="
  M 543.75 638.19
  A 0.64 0.64 0.0 0 0 543.11 637.55
  L 468.89 637.55
  A 0.64 0.64 0.0 0 0 468.25 638.19
  L 468.25 712.61
  A 0.64 0.64 0.0 0 0 468.89 713.25
  L 543.11 713.25
  A 0.64 0.64 0.0 0 0 543.75 712.61
  L 543.75 638.19"
/>
<path stroke="#955954" vector-effect="non-scaling-stroke" d="
  M 622.9350 638.1241
  A 0.62 0.62 0.0 0 0 622.3139 637.5052
  L 547.9540 637.6349
  A 0.62 0.62 0.0 0 0 547.3351 638.2560
  L 547.4650 712.6959
  A 0.62 0.62 0.0 0 0 548.0861 713.3148
  L 622.4460 713.1851
  A 0.62 0.62 0.0 0 0 623.0649 712.5640
  L 622.9350 638.1241"
/>
<path stroke="#955954" vector-effect="non-scaling-stroke" d="
  M 626.50 712.65
  A 0.60 0.60 0.0 0 0 627.10 713.25
  L 701.31 713.25
  A 0.60 0.60 0.0 0 0 701.91 712.65
  L 701.97 638.02
  A 0.60 0.60 0.0 0 0 701.37 637.42
  L 627.10 637.74
  A 0.60 0.60 0.0 0 0 626.50 638.34
  L 626.50 712.65"
/>
<path stroke="#815650" vector-effect="non-scaling-stroke" d="
  M 463.44 792.25
  A 2.51 2.13 20.7 0 0 465.01 791.69
  Q 465.16 791.56 464.69 791.10
  A 0.36 0.33 -70.8 0 1 464.58 790.84
  L 464.65 717.45
  A 0.70 0.70 0.0 0 0 463.95 716.75
  L 389.75 716.75
  A 0.75 0.75 0.0 0 0 389.00 717.50
  L 389.00 791.78
  A 0.48 0.47 90.0 0 0 389.47 792.26
  L 463.44 792.25"
/>
<path stroke="#815650" vector-effect="non-scaling-stroke" d="
  M 543.75 717.26
  A 0.51 0.51 0.0 0 0 543.24 716.75
  L 468.76 716.75
  A 0.51 0.51 0.0 0 0 468.25 717.26
  L 468.25 791.74
  A 0.51 0.51 0.0 0 0 468.76 792.25
  L 543.24 792.25
  A 0.51 0.51 0.0 0 0 543.75 791.74
  L 543.75 717.26"
/>
<path stroke="#955954" vector-effect="non-scaling-stroke" d="
  M 622.52 792.27
  A 0.48 0.48 0.0 0 0 623.00 791.79
  L 623.00 717.25
  A 0.50 0.50 0.0 0 0 622.50 716.75
  L 548.75 716.75
  Q 548.26 716.75 547.81 716.95
  Q 547.03 717.31 547.29 717.88
  Q 547.41 718.16 547.41 718.45
  L 547.51 791.75
  A 0.49 0.49 0.0 0 0 548.00 792.24
  L 622.52 792.27"
/>
<path stroke="#815650" vector-effect="non-scaling-stroke" d="
  M 543.75 796.27
  A 0.27 0.27 0.0 0 0 543.48 796.00
  L 468.52 796.00
  A 0.27 0.27 0.0 0 0 468.25 796.27
  L 468.25 871.23
  A 0.27 0.27 0.0 0 0 468.52 871.50
  L 543.48 871.50
  A 0.27 0.27 0.0 0 0 543.75 871.23
  L 543.75 796.27"
/>
</g>
<path fill="#3a3a3a" d="
  M 504.07 0.00
  L 520.31 0.00
  C 799.11 5.84 1019.24 228.36 1024.00 506.05
  L 1024.00 517.56
  Q 1023.42 549.71 1019.23 581.47
  Q 1017.02 579.26 1016.34 578.17
  Q 1010.32 568.48 990.63 535.67
  Q 990.36 535.22 989.84 535.24
  L 989.28 535.26
  L 989.40 532.51
  C 1001.81 214.41 708.44 -27.49 397.94 48.03
  C 254.73 82.85 134.36 184.10 74.94 318.93
  C 18.48 447.03 20.94 593.18 81.61 719.45
  Q 81.84 719.94 81.35 720.18
  L 50.98 734.71
  Q 2.15 632.71 0.00 519.43
  L 0.00 506.19
  C 4.57 227.43 225.75 5.98 504.07 0.00
  Z"
/>
<path fill="#4caf50" d="
  M 989.40 532.51
  Q 988.59 532.38 988.32 531.93
  Q 924.46 426.64 860.50 321.16
  L 838.01 320.97
  L 827.30 320.73
  Q 826.76 320.72 826.48 320.24
  L 781.22 241.82
  L 705.77 241.80
  L 702.04 241.80
  L 627.11 241.81
  Q 626.55 241.81 626.55 242.37
  L 626.55 317.34
  Q 626.18 319.01 626.54 321.00
  L 626.52 396.48
  L 626.60 399.47
  Q 626.61 399.89 626.19 399.93
  L 623.01 400.22
  L 547.36 400.15
  L 543.81 400.37
  L 506.34 399.97
  L 464.82 321.42
  Q 464.66 321.24 464.45 321.11
  Q 464.28 321.00 464.02 321.00
  Q 447.40 321.01 431.16 320.98
  L 385.48 241.83
  L 309.98 241.80
  Q 308.40 242.33 306.31 241.77
  L 231.23 241.76
  A 0.49 0.48 0.0 0 0 230.74 242.24
  L 230.77 317.50
  L 230.77 320.99
  L 230.77 396.50
  L 230.74 400.23
  L 230.78 475.75
  L 231.19 479.24
  Q 230.75 479.41 230.75 479.75
  Q 230.73 517.52 230.78 554.82
  L 230.75 558.51
  L 230.76 633.43
  A 0.57 0.57 0.0 0 0 231.33 634.00
  Q 245.03 633.99 258.84 634.01
  Q 261.22 634.02 263.37 632.99
  Q 284.61 622.85 305.80 612.68
  Q 306.14 612.52 306.27 612.17
  Q 306.36 611.94 306.57 611.79
  Q 308.29 611.70 310.05 610.62
  L 385.58 574.41
  L 389.17 572.69
  L 418.05 558.73
  L 424.84 554.92
  Q 425.96 555.09 427.25 554.49
  Q 436.46 550.22 464.50 536.61
  L 468.30 534.87
  L 503.61 517.97
  A 0.21 0.20 8.7 0 1 503.85 518.29
  L 469.68 554.79
  L 464.54 560.19
  L 395.61 633.94
  Q 393.56 635.44 393.10 637.63
  Q 390.96 637.97 389.24 641.25
  Q 387.02 642.55 385.50 644.71
  L 322.16 712.70
  L 185.06 860.45
  L 161.91 885.60
  L 140.78 908.48
  Q 140.41 908.87 140.02 908.50
  Q 66.67 839.53 22.45 749.03
  Q 22.22 748.54 22.70 748.31
  L 50.98 734.71
  L 81.35 720.18
  Q 81.84 719.94 81.61 719.45
  C 20.94 593.18 18.48 447.03 74.94 318.93
  C 134.36 184.10 254.73 82.85 397.94 48.03
  C 708.44 -27.49 1001.81 214.41 989.40 532.51
  Z
  M 227.22 321.71
  A 0.71 0.71 0.0 0 0 226.51 321.00
  L 152.21 321.00
  A 0.71 0.71 0.0 0 0 151.50 321.71
  L 151.50 395.79
  A 0.71 0.71 0.0 0 0 152.21 396.50
  L 226.51 396.50
  A 0.71 0.71 0.0 0 0 227.22 395.79
  L 227.22 321.71
  Z
  M 623.00 321.52
  A 0.52 0.52 0.0 0 0 622.48 321.00
  L 547.78 321.00
  A 0.52 0.52 0.0 0 0 547.26 321.52
  L 547.26 395.98
  A 0.52 0.52 0.0 0 0 547.78 396.50
  L 622.48 396.50
  A 0.52 0.52 0.0 0 0 623.00 395.98
  L 623.00 321.52
  Z
  M 227.24 400.89
  A 0.64 0.64 0.0 0 0 226.60 400.25
  L 152.14 400.25
  A 0.64 0.64 0.0 0 0 151.50 400.89
  L 151.50 475.11
  A 0.64 0.64 0.0 0 0 152.14 475.75
  L 226.60 475.75
  A 0.64 0.64 0.0 0 0 227.24 475.11
  L 227.24 400.89
  Z
  M 227.24 479.53
  A 0.27 0.27 0.0 0 0 226.97 479.26
  L 151.77 479.26
  A 0.27 0.27 0.0 0 0 151.50 479.53
  L 151.50 554.49
  A 0.27 0.27 0.0 0 0 151.77 554.76
  L 226.97 554.76
  A 0.27 0.27 0.0 0 0 227.24 554.49
  L 227.24 479.53
  Z
  M 203.08 712.31
  A 12.60 12.60 0.0 0 0 190.48 699.71
  A 12.60 12.60 0.0 0 0 177.88 712.31
  A 12.60 12.60 0.0 0 0 190.48 724.91
  A 12.60 12.60 0.0 0 0 203.08 712.31
  Z
  M 106.21 757.19
  A 12.59 12.59 0.0 0 0 93.62 744.60
  A 12.59 12.59 0.0 0 0 81.03 757.19
  A 12.59 12.59 0.0 0 0 93.62 769.78
  A 12.59 12.59 0.0 0 0 106.21 757.19
  Z
  M 199.64 790.29
  A 12.58 12.58 0.0 0 0 187.06 777.71
  A 12.58 12.58 0.0 0 0 174.48 790.29
  A 12.58 12.58 0.0 0 0 187.06 802.87
  A 12.58 12.58 0.0 0 0 199.64 790.29
  Z"
/>
<path fill="#409444" d="
  M 705.77 241.80
  L 705.79 316.81
  Q 705.79 317.26 706.24 317.26
  L 780.75 317.24
  A 0.50 0.50 0.0 0 0 781.25 316.74
  L 781.22 241.82
  L 826.48 320.24
  Q 826.76 320.72 827.30 320.73
  L 838.01 320.97
  L 785.91 320.99
  A 1.19 1.19 0.0 0 0 784.72 322.19
  L 785.00 395.91
  A 0.60 0.59 0.0 0 0 785.60 396.50
  L 859.75 396.50
  A 0.76 0.76 0.0 0 0 860.51 395.74
  L 860.50 321.16
  Q 924.46 426.64 988.32 531.93
  Q 988.59 532.38 989.40 532.51
  L 989.28 535.26
  C 980.38 703.60 884.23 856.96 734.20 935.01
  C 553.17 1029.18 334.73 999.85 185.06 860.45
  L 322.16 712.70
  L 322.45 712.96
  A 1.17 1.16 -24.3 0 0 323.22 713.25
  L 384.75 713.25
  A 0.75 0.75 0.0 0 0 385.50 712.50
  L 385.50 644.71
  Q 387.02 642.55 389.24 641.25
  L 389.24 712.72
  A 0.53 0.53 0.0 0 0 389.77 713.25
  L 464.00 713.25
  A 0.75 0.75 0.0 0 0 464.75 712.50
  L 464.75 638.26
  Q 464.75 637.77 464.26 637.77
  L 393.10 637.63
  Q 393.56 635.44 395.61 633.94
  L 463.93 633.99
  A 0.60 0.60 0.0 0 0 464.53 633.39
  L 464.54 560.19
  L 469.68 554.79
  L 543.04 554.68
  A 0.71 0.70 0.0 0 0 543.75 553.98
  L 543.75 479.75
  A 0.50 0.50 0.0 0 0 543.25 479.25
  L 468.56 479.25
  A 0.27 0.26 90.0 0 0 468.30 479.52
  L 468.30 534.87
  L 464.50 536.61
  L 464.60 479.62
  A 0.37 0.37 0.0 0 0 464.23 479.25
  L 390.00 479.25
  A 1.00 1.00 0.0 0 0 389.00 480.25
  L 389.00 553.97
  A 0.91 0.90 0.3 0 0 389.90 554.87
  L 424.84 554.92
  L 418.05 558.73
  L 389.61 558.58
  Q 389.07 558.57 389.08 559.11
  L 389.17 572.69
  L 385.58 574.41
  L 385.49 558.99
  Q 385.49 558.50 385.00 558.50
  L 310.74 558.50
  Q 310.05 558.50 310.05 559.18
  L 310.05 610.62
  Q 308.29 611.70 306.57 611.79
  Q 306.21 611.37 306.21 610.99
  Q 306.29 585.07 306.24 559.03
  Q 306.24 558.51 305.72 558.51
  L 230.75 558.51
  L 230.78 554.82
  L 305.84 554.82
  A 0.41 0.41 0.0 0 0 306.25 554.41
  L 306.25 479.76
  A 0.52 0.52 0.0 0 0 305.73 479.24
  L 231.19 479.24
  L 230.78 475.75
  L 305.74 475.75
  A 0.51 0.51 0.0 0 0 306.25 475.24
  L 306.25 400.75
  Q 306.25 400.24 305.73 400.24
  L 230.74 400.23
  L 230.77 396.50
  L 305.74 396.50
  A 0.51 0.51 0.0 0 0 306.25 395.99
  L 306.25 321.51
  A 0.52 0.52 0.0 0 0 305.73 320.99
  L 230.77 320.99
  L 230.77 317.50
  L 305.27 317.50
  A 1.03 1.02 90.0 0 0 306.29 316.47
  L 306.31 241.77
  Q 308.40 242.33 309.98 241.80
  L 310.00 316.21
  Q 310.00 317.43 311.21 317.42
  L 385.03 317.18
  A 0.47 0.47 0.0 0 0 385.50 316.71
  L 385.48 241.83
  L 431.16 320.98
  L 389.77 320.99
  A 0.77 0.77 0.0 0 0 389.00 321.76
  L 389.00 395.75
  A 0.75 0.75 0.0 0 0 389.75 396.50
  L 463.73 396.50
  A 1.12 1.11 90.0 0 0 464.84 395.38
  L 464.82 321.42
  L 506.34 399.97
  L 468.81 400.12
  A 0.58 0.57 -0.5 0 0 468.24 400.69
  L 468.25 475.25
  A 0.50 0.50 0.0 0 0 468.75 475.75
  L 543.22 475.75
  A 0.58 0.57 -90.0 0 0 543.79 475.17
  L 543.81 400.37
  L 547.36 400.15
  L 547.40 475.39
  A 0.36 0.35 -90.0 0 0 547.75 475.75
  L 621.76 475.75
  A 1.25 1.25 0.0 0 0 623.01 474.50
  L 623.01 400.22
  L 626.19 399.93
  Q 626.61 399.89 626.60 399.47
  L 626.52 396.48
  L 701.42 396.48
  Q 702.00 396.48 702.01 395.89
  L 702.28 321.72
  A 0.72 0.72 0.0 0 0 701.56 321.00
  L 626.54 321.00
  Q 626.18 319.01 626.55 317.34
  L 701.55 317.32
  A 0.56 0.55 0.0 0 0 702.11 316.77
  L 702.04 241.80
  L 705.77 241.80
  Z
  M 385.5650 321.3559
  A 0.48 0.48 0.0 0 0 385.0858 320.8751
  L 310.5459 320.7450
  A 0.48 0.48 0.0 0 0 310.0651 321.2242
  L 309.9350 395.7441
  A 0.48 0.48 0.0 0 0 310.4142 396.2249
  L 384.9541 396.3550
  A 0.48 0.48 0.0 0 0 385.4349 395.8758
  L 385.5650 321.3559
  Z
  M 781.25 321.60
  A 0.60 0.60 0.0 0 0 780.65 321.00
  L 706.35 321.00
  A 0.60 0.60 0.0 0 0 705.75 321.60
  L 705.75 395.90
  A 0.60 0.60 0.0 0 0 706.35 396.50
  L 780.65 396.50
  A 0.60 0.60 0.0 0 0 781.25 395.90
  L 781.25 321.60
  Z
  M 464.7048 400.9061
  A 0.59 0.59 0.0 0 0 464.1158 400.3150
  L 389.6559 400.1851
  A 0.59 0.59 0.0 0 0 389.0649 400.7740
  L 388.9352 475.0939
  A 0.59 0.59 0.0 0 0 389.5242 475.6850
  L 463.9841 475.8149
  A 0.59 0.59 0.0 0 0 464.5751 475.2260
  L 464.7048 400.9061
  Z
  M 702.12 400.83
  A 0.59 0.59 0.0 0 0 701.53 400.24
  L 627.09 400.24
  A 0.59 0.59 0.0 0 0 626.50 400.83
  L 626.50 475.15
  A 0.59 0.59 0.0 0 0 627.09 475.74
  L 701.53 475.74
  A 0.59 0.59 0.0 0 0 702.12 475.15
  L 702.12 400.83
  Z
  M 781.25 400.68
  A 0.43 0.43 0.0 0 0 780.82 400.25
  L 706.18 400.25
  A 0.43 0.43 0.0 0 0 705.75 400.68
  L 705.75 475.32
  A 0.43 0.43 0.0 0 0 706.18 475.75
  L 780.82 475.75
  A 0.43 0.43 0.0 0 0 781.25 475.32
  L 781.25 400.68
  Z
  M 860.50 400.81
  A 0.56 0.56 0.0 0 0 859.94 400.25
  L 785.48 400.25
  A 0.56 0.56 0.0 0 0 784.92 400.81
  L 784.92 475.19
  A 0.56 0.56 0.0 0 0 785.48 475.75
  L 859.94 475.75
  A 0.56 0.56 0.0 0 0 860.50 475.19
  L 860.50 400.81
  Z
  M 385.50 400.68
  A 0.43 0.43 0.0 0 0 385.07 400.25
  L 310.43 400.25
  A 0.43 0.43 0.0 0 0 310.00 400.68
  L 310.00 475.32
  A 0.43 0.43 0.0 0 0 310.43 475.75
  L 385.07 475.75
  A 0.43 0.43 0.0 0 0 385.50 475.32
  L 385.50 400.68
  Z
  M 385.50 479.68
  A 0.42 0.42 0.0 0 0 385.08 479.26
  L 310.42 479.26
  A 0.42 0.42 0.0 0 0 310.00 479.68
  L 310.00 554.34
  A 0.42 0.42 0.0 0 0 310.42 554.76
  L 385.08 554.76
  A 0.42 0.42 0.0 0 0 385.50 554.34
  L 385.50 479.68
  Z
  M 547.57 554.24
  A 0.64 0.64 0.0 0 0 548.21 554.88
  L 622.36 554.79
  A 0.64 0.64 0.0 0 0 623.00 554.15
  L 623.00 479.89
  A 0.64 0.64 0.0 0 0 622.36 479.25
  L 547.90 479.25
  A 0.64 0.64 0.0 0 0 547.26 479.89
  L 547.57 554.24
  Z
  M 702.1151 479.8540
  A 0.67 0.67 0.0 0 0 701.4440 479.1852
  L 627.1041 479.3149
  A 0.67 0.67 0.0 0 0 626.4352 479.9861
  L 626.5649 554.2660
  A 0.67 0.67 0.0 0 0 627.2360 554.9348
  L 701.5759 554.8051
  A 0.67 0.67 0.0 0 0 702.2448 554.1339
  L 702.1151 479.8540
  Z
  M 781.25 480.09
  A 0.59 0.59 0.0 0 0 780.66 479.50
  L 706.34 479.50
  A 0.59 0.59 0.0 0 0 705.75 480.09
  L 705.75 554.41
  A 0.59 0.59 0.0 0 0 706.34 555.00
  L 780.66 555.00
  A 0.59 0.59 0.0 0 0 781.25 554.41
  L 781.25 480.09
  Z
  M 860.5648 479.9361
  A 0.62 0.62 0.0 0 0 859.9458 479.3150
  L 785.5260 479.1851
  A 0.62 0.62 0.0 0 0 784.9049 479.8040
  L 784.7752 554.0839
  A 0.62 0.62 0.0 0 0 785.3942 554.7050
  L 859.8140 554.8349
  A 0.62 0.62 0.0 0 0 860.4351 554.2160
  L 860.5648 479.9361
  Z
  M 781.25 559.08
  A 0.58 0.58 0.0 0 0 780.67 558.50
  L 706.33 558.50
  A 0.58 0.58 0.0 0 0 705.75 559.08
  L 705.75 633.42
  A 0.58 0.58 0.0 0 0 706.33 634.00
  L 780.67 634.00
  A 0.58 0.58 0.0 0 0 781.25 633.42
  L 781.25 559.08
  Z
  M 543.75 558.94
  A 0.44 0.44 0.0 0 0 543.31 558.50
  L 468.69 558.50
  A 0.44 0.44 0.0 0 0 468.25 558.94
  L 468.25 633.56
  A 0.44 0.44 0.0 0 0 468.69 634.00
  L 543.31 634.00
  A 0.44 0.44 0.0 0 0 543.75 633.56
  L 543.75 558.94
  Z
  M 622.9348 558.8341
  A 0.40 0.40 0.0 0 0 622.5341 558.4348
  L 547.7942 558.5653
  A 0.40 0.40 0.0 0 0 547.3949 558.9660
  L 547.5252 633.6659
  A 0.40 0.40 0.0 0 0 547.9259 634.0652
  L 622.6658 633.9347
  A 0.40 0.40 0.0 0 0 623.0651 633.5340
  L 622.9348 558.8341
  Z
  M 702.16 559.06
  A 0.56 0.56 0.0 0 0 701.60 558.50
  L 627.06 558.50
  A 0.56 0.56 0.0 0 0 626.50 559.06
  L 626.50 633.44
  A 0.56 0.56 0.0 0 0 627.06 634.00
  L 701.60 634.00
  A 0.56 0.56 0.0 0 0 702.16 633.44
  L 702.16 559.06
  Z
  M 543.75 638.19
  A 0.64 0.64 0.0 0 0 543.11 637.55
  L 468.89 637.55
  A 0.64 0.64 0.0 0 0 468.25 638.19
  L 468.25 712.61
  A 0.64 0.64 0.0 0 0 468.89 713.25
  L 543.11 713.25
  A 0.64 0.64 0.0 0 0 543.75 712.61
  L 543.75 638.19
  Z
  M 622.9350 638.1241
  A 0.62 0.62 0.0 0 0 622.3139 637.5052
  L 547.9540 637.6349
  A 0.62 0.62 0.0 0 0 547.3351 638.2560
  L 547.4650 712.6959
  A 0.62 0.62 0.0 0 0 548.0861 713.3148
  L 622.4460 713.1851
  A 0.62 0.62 0.0 0 0 623.0649 712.5640
  L 622.9350 638.1241
  Z
  M 626.50 712.65
  A 0.60 0.60 0.0 0 0 627.10 713.25
  L 701.31 713.25
  A 0.60 0.60 0.0 0 0 701.91 712.65
  L 701.97 638.02
  A 0.60 0.60 0.0 0 0 701.37 637.42
  L 627.10 637.74
  A 0.60 0.60 0.0 0 0 626.50 638.34
  L 626.50 712.65
  Z
  M 463.44 792.25
  A 2.51 2.13 20.7 0 0 465.01 791.69
  Q 465.16 791.56 464.69 791.10
  A 0.36 0.33 -70.8 0 1 464.58 790.84
  L 464.65 717.45
  A 0.70 0.70 0.0 0 0 463.95 716.75
  L 389.75 716.75
  A 0.75 0.75 0.0 0 0 389.00 717.50
  L 389.00 791.78
  A 0.48 0.47 90.0 0 0 389.47 792.26
  L 463.44 792.25
  Z
  M 543.75 717.26
  A 0.51 0.51 0.0 0 0 543.24 716.75
  L 468.76 716.75
  A 0.51 0.51 0.0 0 0 468.25 717.26
  L 468.25 791.74
  A 0.51 0.51 0.0 0 0 468.76 792.25
  L 543.24 792.25
  A 0.51 0.51 0.0 0 0 543.75 791.74
  L 543.75 717.26
  Z
  M 622.52 792.27
  A 0.48 0.48 0.0 0 0 623.00 791.79
  L 623.00 717.25
  A 0.50 0.50 0.0 0 0 622.50 716.75
  L 548.75 716.75
  Q 548.26 716.75 547.81 716.95
  Q 547.03 717.31 547.29 717.88
  Q 547.41 718.16 547.41 718.45
  L 547.51 791.75
  A 0.49 0.49 0.0 0 0 548.00 792.24
  L 622.52 792.27
  Z
  M 543.75 796.27
  A 0.27 0.27 0.0 0 0 543.48 796.00
  L 468.52 796.00
  A 0.27 0.27 0.0 0 0 468.25 796.27
  L 468.25 871.23
  A 0.27 0.27 0.0 0 0 468.52 871.50
  L 543.48 871.50
  A 0.27 0.27 0.0 0 0 543.75 871.23
  L 543.75 796.27
  Z"
/>
<path fill="#c2185b" d="
  M 306.31 241.77
  L 306.29 316.47
  A 1.03 1.02 90.0 0 1 305.27 317.50
  L 230.77 317.50
  L 230.74 242.24
  A 0.49 0.48 0.0 0 1 231.23 241.76
  L 306.31 241.77
  Z"
/>
<path fill="#e91e63" d="
  M 385.48 241.83
  L 385.50 316.71
  A 0.47 0.47 0.0 0 1 385.03 317.18
  L 311.21 317.42
  Q 310.00 317.43 310.00 316.21
  L 309.98 241.80
  L 385.48 241.83
  Z"
/>
<path fill="#e91e63" d="
  M 702.04 241.80
  L 702.11 316.77
  A 0.56 0.55 0.0 0 1 701.55 317.32
  L 626.55 317.34
  L 626.55 242.37
  Q 626.55 241.81 627.11 241.81
  L 702.04 241.80
  Z"
/>
<path fill="#e91e63" d="
  M 781.22 241.82
  L 781.25 316.74
  A 0.50 0.50 0.0 0 1 780.75 317.24
  L 706.24 317.26
  Q 705.79 317.26 705.79 316.81
  L 705.77 241.80
  L 781.22 241.82
  Z"
/>
<rect fill="#e91e63" x="-37.75" y="-37.74" transform="translate(347.75,358.55) rotate(0.1)" width="75.50" height="75.48" rx="0.48"/>
<rect fill="#c2185b" x="151.50" y="321.00" width="75.72" height="75.50" rx="0.71"/>
<path fill="#c2185b" d="
  M 230.77 320.99
  L 305.73 320.99
  A 0.52 0.52 0.0 0 1 306.25 321.51
  L 306.25 395.99
  A 0.51 0.51 0.0 0 1 305.74 396.50
  L 230.77 396.50
  L 230.77 320.99
  Z"
/>
<path fill="#e91e63" d="
  M 431.16 320.98
  Q 447.40 321.01 464.02 321.00
  Q 464.28 321.00 464.45 321.11
  Q 464.66 321.24 464.82 321.42
  L 464.84 395.38
  A 1.12 1.11 90.0 0 1 463.73 396.50
  L 389.75 396.50
  A 0.75 0.75 0.0 0 1 389.00 395.75
  L 389.00 321.76
  A 0.77 0.77 0.0 0 1 389.77 320.99
  L 431.16 320.98
  Z"
/>
<rect fill="#e91e63" x="547.26" y="321.00" width="75.74" height="75.50" rx="0.52"/>
<path fill="#e91e63" d="
  M 626.54 321.00
  L 701.56 321.00
  A 0.72 0.72 0.0 0 1 702.28 321.72
  L 702.01 395.89
  Q 702.00 396.48 701.42 396.48
  L 626.52 396.48
  L 626.54 321.00
  Z"
/>
<rect fill="#e91e63" x="705.75" y="321.00" width="75.50" height="75.50" rx="0.60"/>
<path fill="#e91e63" d="
  M 838.01 320.97
  L 860.50 321.16
  L 860.51 395.74
  A 0.76 0.76 0.0 0 1 859.75 396.50
  L 785.60 396.50
  A 0.60 0.59 -0.0 0 1 785.00 395.91
  L 784.72 322.19
  A 1.19 1.19 0.0 0 1 785.91 320.99
  L 838.01 320.97
  Z"
/>
<rect fill="#c2185b" x="151.50" y="400.25" width="75.74" height="75.50" rx="0.64"/>
<path fill="#c2185b" d="
  M 230.78 475.75
  L 230.74 400.23
  L 305.73 400.24
  Q 306.25 400.24 306.25 400.75
  L 306.25 475.24
  A 0.51 0.51 0.0 0 1 305.74 475.75
  L 230.78 475.75
  Z"
/>
<rect fill="#e91e63" x="-37.82" y="-37.75" transform="translate(426.82,438.00) rotate(0.1)" width="75.64" height="75.50" rx="0.59"/>
<path fill="#e91e63" d="
  M 506.34 399.97
  L 543.81 400.37
  L 543.79 475.17
  A 0.58 0.57 90.0 0 1 543.22 475.75
  L 468.75 475.75
  A 0.50 0.50 0.0 0 1 468.25 475.25
  L 468.24 400.69
  A 0.58 0.57 -0.5 0 1 468.81 400.12
  L 506.34 399.97
  Z"
/>
<path fill="#e91e63" d="
  M 623.01 400.22
  L 623.01 474.50
  A 1.25 1.25 0.0 0 1 621.76 475.75
  L 547.75 475.75
  A 0.36 0.35 90.0 0 1 547.40 475.39
  L 547.36 400.15
  L 623.01 400.22
  Z"
/>
<rect fill="#e91e63" x="626.50" y="400.24" width="75.62" height="75.50" rx="0.59"/>
<rect fill="#e91e63" x="705.75" y="400.25" width="75.50" height="75.50" rx="0.43"/>
<rect fill="#e91e63" x="784.92" y="400.25" width="75.58" height="75.50" rx="0.56"/>
<rect fill="#c2185b" x="310.00" y="400.25" width="75.50" height="75.50" rx="0.43"/>
<rect fill="#c2185b" x="151.50" y="479.26" width="75.74" height="75.50" rx="0.27"/>
<path fill="#c2185b" d="
  M 231.19 479.24
  L 305.73 479.24
  A 0.52 0.52 0.0 0 1 306.25 479.76
  L 306.25 554.41
  A 0.41 0.41 0.0 0 1 305.84 554.82
  L 230.78 554.82
  Q 230.73 517.52 230.75 479.75
  Q 230.75 479.41 231.19 479.24
  Z"
/>
<rect fill="#c2185b" x="310.00" y="479.26" width="75.50" height="75.50" rx="0.42"/>
<path fill="#e91e63" d="
  M 464.50 536.61
  Q 436.46 550.22 427.25 554.49
  Q 425.96 555.09 424.84 554.92
  L 389.90 554.87
  A 0.91 0.90 0.3 0 1 389.00 553.97
  L 389.00 480.25
  A 1.00 1.00 0.0 0 1 390.00 479.25
  L 464.23 479.25
  A 0.37 0.37 0.0 0 1 464.60 479.62
  L 464.50 536.61
  Z"
/>
<path fill="#e91e63" d="
  M 469.68 554.79
  L 503.85 518.29
  A 0.21 0.20 8.7 0 0 503.61 517.97
  L 468.30 534.87
  L 468.30 479.52
  A 0.27 0.26 -90.0 0 1 468.56 479.25
  L 543.25 479.25
  A 0.50 0.50 0.0 0 1 543.75 479.75
  L 543.75 553.98
  A 0.71 0.70 -0.0 0 1 543.04 554.68
  L 469.68 554.79
  Z"
/>
<path fill="#e91e63" d="
  M 547.57 554.24
  L 547.26 479.89
  A 0.64 0.64 0.0 0 1 547.90 479.25
  L 622.36 479.25
  A 0.64 0.64 0.0 0 1 623.00 479.89
  L 623.00 554.15
  A 0.64 0.64 0.0 0 1 622.36 554.79
  L 548.21 554.88
  A 0.64 0.64 0.0 0 1 547.57 554.24
  Z"
/>
<rect fill="#e91e63" x="-37.84" y="-37.81" transform="translate(664.34,517.06) rotate(-0.1)" width="75.68" height="75.62" rx="0.67"/>
<rect fill="#e91e63" x="705.75" y="479.50" width="75.50" height="75.50" rx="0.59"/>
<rect fill="#e91e63" x="-37.83" y="-37.76" transform="translate(822.67,517.01) rotate(0.1)" width="75.66" height="75.52" rx="0.62"/>
<path fill="#313131" d="
  M 989.28 535.26
  L 989.84 535.24
  Q 990.36 535.22 990.63 535.67
  Q 1010.32 568.48 1016.34 578.17
  Q 1017.02 579.26 1019.23 581.47
  C 983.51 832.38 774.08 1019.27 519.68 1024.00
  L 504.19 1024.00
  C 375.67 1021.27 256.24 972.94 161.91 885.60
  L 185.06 860.45
  C 334.73 999.85 553.17 1029.18 734.20 935.01
  C 884.23 856.96 980.38 703.60 989.28 535.26
  Z"
/>
<path fill="#c2185b" d="
  M 385.58 574.41
  L 310.05 610.62
  L 310.05 559.18
  Q 310.05 558.50 310.74 558.50
  L 385.00 558.50
  Q 385.49 558.50 385.49 558.99
  L 385.58 574.41
  Z"
/>
<rect fill="#e91e63" x="705.75" y="558.50" width="75.50" height="75.50" rx="0.58"/>
<path fill="#c2185b" d="
  M 230.75 558.51
  L 305.72 558.51
  Q 306.24 558.51 306.24 559.03
  Q 306.29 585.07 306.21 610.99
  Q 306.21 611.37 306.57 611.79
  Q 306.36 611.94 306.27 612.17
  Q 306.14 612.52 305.80 612.68
  Q 284.61 622.85 263.37 632.99
  Q 261.22 634.02 258.84 634.01
  Q 245.03 633.99 231.33 634.00
  A 0.57 0.57 0.0 0 1 230.76 633.43
  L 230.75 558.51
  Z"
/>
<path fill="#c2185b" d="
  M 418.05 558.73
  L 389.17 572.69
  L 389.08 559.11
  Q 389.07 558.57 389.61 558.58
  L 418.05 558.73
  Z"
/>
<rect fill="#e91e63" x="468.25" y="558.50" width="75.50" height="75.50" rx="0.44"/>
<rect fill="#e91e63" x="-37.77" y="-37.75" transform="translate(585.23,596.25) rotate(-0.1)" width="75.54" height="75.50" rx="0.40"/>
<rect fill="#e91e63" x="626.50" y="558.50" width="75.66" height="75.50" rx="0.56"/>
<path fill="#c2185b" d="
  M 464.54 560.19
  L 464.53 633.39
  A 0.60 0.60 0.0 0 1 463.93 633.99
  L 395.61 633.94
  L 464.54 560.19
  Z"
/>
<path fill="#c2185b" d="
  M 393.10 637.63
  L 464.26 637.77
  Q 464.75 637.77 464.75 638.26
  L 464.75 712.50
  A 0.75 0.75 0.0 0 1 464.00 713.25
  L 389.77 713.25
  A 0.53 0.53 0.0 0 1 389.24 712.72
  L 389.24 641.25
  Q 390.96 637.97 393.10 637.63
  Z"
/>
<rect fill="#e91e63" x="468.25" y="637.55" width="75.50" height="75.70" rx="0.64"/>
<rect fill="#e91e63" x="-37.80" y="-37.84" transform="translate(585.20,675.41) rotate(-0.1)" width="75.60" height="75.68" rx="0.62"/>
<path fill="#e91e63" d="
  M 626.50 712.65
  L 626.50 638.34
  A 0.60 0.60 0.0 0 1 627.10 637.74
  L 701.37 637.42
  A 0.60 0.60 0.0 0 1 701.97 638.02
  L 701.91 712.65
  A 0.60 0.60 0.0 0 1 701.31 713.25
  L 627.10 713.25
  A 0.60 0.60 0.0 0 1 626.50 712.65
  Z"
/>
<path fill="#c2185b" d="
  M 385.50 644.71
  L 385.50 712.50
  A 0.75 0.75 0.0 0 1 384.75 713.25
  L 323.22 713.25
  A 1.17 1.16 -24.3 0 1 322.45 712.96
  L 322.16 712.70
  L 385.50 644.71
  Z"
/>
<circle fill="#cddc39" cx="190.48" cy="712.31" r="12.60"/>
<path fill="#c2185b" d="
  M 463.44 792.25
  L 389.47 792.26
  A 0.48 0.47 -90.0 0 1 389.00 791.78
  L 389.00 717.50
  A 0.75 0.75 0.0 0 1 389.75 716.75
  L 463.95 716.75
  A 0.70 0.70 0.0 0 1 464.65 717.45
  L 464.58 790.84
  A 0.36 0.33 -70.8 0 0 464.69 791.10
  Q 465.16 791.56 465.01 791.69
  A 2.51 2.13 20.7 0 1 463.44 792.25
  Z"
/>
<rect fill="#c2185b" x="468.25" y="716.75" width="75.50" height="75.50" rx="0.51"/>
<path fill="#e91e63" d="
  M 622.52 792.27
  L 548.00 792.24
  A 0.49 0.49 0.0 0 1 547.51 791.75
  L 547.41 718.45
  Q 547.41 718.16 547.29 717.88
  Q 547.03 717.31 547.81 716.95
  Q 548.26 716.75 548.75 716.75
  L 622.50 716.75
  A 0.50 0.50 0.0 0 1 623.00 717.25
  L 623.00 791.79
  A 0.48 0.48 0.0 0 1 622.52 792.27
  Z"
/>
<circle fill="#cddc39" cx="93.62" cy="757.19" r="12.59"/>
<circle fill="#cddc39" cx="187.06" cy="790.29" r="12.58"/>
<rect fill="#c2185b" x="468.25" y="796.00" width="75.50" height="75.50" rx="0.27"/>
</svg>
