<?xml version="1.0" encoding="UTF-8" standalone="no"?>
<!-- Created with Inkscape (http://www.inkscape.org/) -->

<svg
   width="400.00006"
   height="699.99994"
   viewBox="0 0 105.83335 185.20831"
   version="1.1"
   id="svg5"
   xml:space="preserve"
   inkscape:version="1.2.2 (b0a8486541, 2022-12-01)"
   sodipodi:docname="test-ad.svg"
   inkscape:export-filename="pon-tu-anuncio-aqui.jpg"
   inkscape:export-xdpi="96"
   inkscape:export-ydpi="96"
   xmlns:inkscape="http://www.inkscape.org/namespaces/inkscape"
   xmlns:sodipodi="http://sodipodi.sourceforge.net/DTD/sodipodi-0.dtd"
   xmlns="http://www.w3.org/2000/svg"
   xmlns:svg="http://www.w3.org/2000/svg"><sodipodi:namedview
     id="namedview7"
     pagecolor="#505050"
     bordercolor="#eeeeee"
     borderopacity="1"
     inkscape:showpageshadow="0"
     inkscape:pageopacity="0"
     inkscape:pagecheckerboard="0"
     inkscape:deskcolor="#505050"
     inkscape:document-units="mm"
     showgrid="false"
     inkscape:zoom="0.70710678"
     inkscape:cx="453.96255"
     inkscape:cy="1100.9653"
     inkscape:window-width="1920"
     inkscape:window-height="999"
     inkscape:window-x="0"
     inkscape:window-y="0"
     inkscape:window-maximized="1"
     inkscape:current-layer="layer1" /><defs
     id="defs2" /><g
     inkscape:label="Capa 1"
     inkscape:groupmode="layer"
     id="layer1"
     transform="translate(-290.90055)"><rect
       style="fill:#333333;stroke-width:3.96999;stroke-linecap:round;paint-order:stroke fill markers"
       id="rect10860"
       width="105.83333"
       height="185.20833"
       x="290.90057"
       y="5.7220459e-06"
       inkscape:export-filename="tutorial-2.png"
       inkscape:export-xdpi="96"
       inkscape:export-ydpi="96" /><path
       style="color:#000000;fill:#e91e63;fill-opacity:1;stroke-width:0.792568;stroke-dasharray:7.5383, 1.88458;-inkscape-stroke:none;paint-order:stroke fill markers"
       d="m 342.82104,10.955094 v 7.124879 h 1.99331 v -7.124879 z m 0,8.905368 v 7.124881 h 1.99331 v -7.124881 z m 0,8.905369 v 7.12488 h 1.99331 v -7.12488 z m 0,8.905368 v 7.12488 h 1.99331 v -7.12488 z m 0,8.906831 v 7.123417 h 1.99331 V 46.57803 Z m 0,8.905368 v 7.124881 h 1.99331 v -7.124881 z m 0,8.905368 v 7.12488 h 1.99331 v -7.12488 z m 0,8.905369 v 7.124879 h 1.99331 v -7.124879 z m 0,8.905368 v 7.124881 h 1.99331 v -7.124881 z"
       id="path10862" /><g
       id="g14270"
       transform="translate(-3.1750001)"><g
         id="g12392"
         transform="matrix(0.64196696,0,0,0.64196696,129.48224,14.077642)"><path
           style="fill:#e91e63;fill-opacity:1;stroke-width:0.0453797"
           d="m 372.4822,32.934292 c -0.0561,-0.0108 -0.14804,-0.0108 -0.20421,0 -0.0561,0.0108 -0.0102,0.0197 0.10211,0.0197 0.11232,0 0.15826,-0.009 0.1021,-0.0197 z"
           id="path12385" /><path
           style="fill:#e91e63;fill-opacity:1;stroke-width:0.0453797"
           d="m 369.35221,42.498662 c -1.86342,-1.30862 -2.67348,-3.52297 -2.09269,-5.72046 0.0903,-0.3417 0.11091,-0.3968 0.32449,-0.86827 0.13818,-0.30503 0.47704,-0.84203 0.67816,-1.0747 0.61808,-0.71504 1.51728,-1.34262 2.30869,-1.61131 0.60654,-0.20592 1.85986,-0.39733 2.02456,-0.3092 0.053,0.0283 0.18158,0.0516 0.28573,0.0516 0.61909,0 1.79128,0.44334 2.48945,0.94153 0.82937,0.59183 1.60858,1.63204 1.88794,2.52031 0.041,0.13013 0.092,0.27745 0.11347,0.32737 0.1072,0.24917 0.19046,1.06872 0.16827,1.65635 -0.0215,0.56917 -0.0494,0.72921 -0.23774,1.36332 -0.12318,0.41474 -0.45747,1.10963 -0.64307,1.33677 -0.0204,0.0249 -0.0727,0.10089 -0.11625,0.16875 -0.0775,0.12078 -0.0865,0.12286 -0.43075,0.0994 -0.22479,-0.0154 -0.45796,-4.7e-4 -0.64655,0.0411 -0.16223,0.0359 -0.31305,0.0486 -0.33515,0.0283 -0.0221,-0.0203 -0.0398,-0.31149 -0.0392,-0.6472 l 6e-4,-0.61038 0.16243,-0.27717 c 0.33584,-0.573 0.5064,-1.25966 0.47094,-1.89596 -0.0295,-0.5301 -0.115,-0.86707 -0.33732,-1.32995 -0.74143,-1.5437 -2.51136,-2.28586 -4.16767,-1.74758 -0.65006,0.21126 -1.31298,0.70448 -1.69024,1.25755 -0.46286,0.6786 -0.60957,1.1623 -0.60925,2.00874 1.9e-4,0.51768 0.0151,0.63441 0.12121,0.95298 0.13372,0.40123 0.36603,0.85198 0.56978,1.10551 l 0.13272,0.16515 0.003,1.08909 c 0.002,0.599 0.002,1.11463 0.002,1.14583 -0.002,0.093 -0.0623,0.0678 -0.39738,-0.16756 z"
           id="path12383" /><path
           style="fill:#e91e63;fill-opacity:1;stroke-width:0.0453797"
           d="m 372.81121,62.520582 c -0.17963,-0.091 -0.37842,-0.27758 -0.45785,-0.42963 -0.0448,-0.0858 -0.064,-0.28725 -0.064,-0.67234 0,-0.32699 -0.0211,-0.58923 -0.0521,-0.64713 -0.0286,-0.0535 -0.61576,-0.65974 -1.30467,-1.34712 -1.53882,-1.5354 -2.03274,-2.10879 -2.60489,-3.02398 -0.14199,-0.22712 -0.32126,-0.55386 -0.3984,-0.72609 -0.0771,-0.17221 -0.18955,-0.41908 -0.24983,-0.54856 -0.0603,-0.12949 -0.1096,-0.2574 -0.1096,-0.28423 0,-0.0269 -0.0181,-0.0843 -0.0401,-0.12761 -0.0905,-0.17781 -0.52867,-1.35344 -0.73137,-1.96206 -0.071,-0.21326 -0.27949,-0.794 -0.31765,-0.88491 -0.021,-0.0499 -0.094,-0.24391 -0.16236,-0.4311 -0.091,-0.24918 -0.1934,-0.41936 -0.3824,-0.63532 -0.69878,-0.79842 -0.86201,-1.1378 -0.86201,-1.79221 0,-0.98783 0.62223,-1.7858 1.59425,-2.04451 0.63648,-0.16941 1.49642,0.0516 1.92439,0.49464 0.24179,0.25028 0.71724,0.96618 1.63943,2.46853 0.0345,0.0561 0.0826,0.1021 0.10701,0.1021 0.0286,0 0.0443,-2.18423 0.0443,-6.17071 0,-6.6926 -0.0163,-6.22569 0.23505,-6.74474 0.11473,-0.23693 0.45796,-0.60769 0.703,-0.75939 0.43916,-0.27188 1.10166,-0.37858 1.58052,-0.25457 0.54788,0.14191 1.09183,0.57271 1.32907,1.05261 0.22837,0.46197 0.23652,0.56301 0.23652,2.93331 0,1.21761 0.013,2.2269 0.0291,2.24287 0.016,0.016 0.10616,-0.032 0.20044,-0.10673 0.55824,-0.44212 1.48284,-0.53507 2.15938,-0.21705 0.29651,0.13938 0.75132,0.57916 0.90694,0.87699 0.0717,0.13723 0.14529,0.24954 0.16351,0.2496 0.0183,5e-5 0.14076,-0.0677 0.27229,-0.15049 0.39625,-0.24955 0.51279,-0.28051 1.05595,-0.28051 0.69925,0 1.02973,0.12124 1.46757,0.53843 0.29134,0.27759 0.44415,0.52096 0.57758,0.91979 0.0657,0.19633 0.12566,0.36354 0.1333,0.37159 0.008,0.008 0.0924,-0.034 0.18835,-0.0934 0.34942,-0.2163 0.59938,-0.28127 1.08205,-0.28127 0.33863,0 0.51138,0.0221 0.6807,0.0872 0.50635,0.19458 0.93788,0.56496 1.14577,0.98341 0.24947,0.50211 0.23926,0.39674 0.28491,2.94125 0.0427,2.38053 0.0749,3.12462 0.2093,4.83414 0.10075,1.28168 0.0999,2.65332 -0.002,3.17658 -0.11256,0.57814 -0.28758,1.20922 -0.42162,1.52022 -0.0376,0.0873 -0.0857,0.19967 -0.10671,0.24958 -0.23402,0.5549 -0.58382,1.29823 -0.62998,1.3387 -0.0142,0.0125 -0.0859,0.14522 -0.15919,0.29497 -0.0733,0.14975 -0.16741,0.32333 -0.20908,0.38573 -0.27948,0.41855 -0.29948,0.49113 -0.33147,1.20261 -0.0168,0.3744 -0.0507,0.75335 -0.0752,0.8421 -0.0499,0.18089 -0.21081,0.35073 -0.46626,0.49226 -0.17122,0.0949 -0.1805,0.095 -4.92369,0.0902 -4.15641,-0.004 -4.7692,-0.0134 -4.88827,-0.0738 z"
           id="path11817" /></g><text
         xml:space="preserve"
         style="font-weight:bold;font-size:3.1706px;font-family:'Noto Sans';-inkscape-font-specification:'Noto Sans Bold';text-align:center;text-anchor:middle;fill:#e91e63;fill-opacity:1;stroke:none;stroke-width:2.71126;stroke-linecap:butt;stroke-dasharray:10.8451, 2.71126;stroke-dashoffset:0;paint-order:stroke fill markers"
         x="370.32315"
         y="60.04417"
         id="text11823"><tspan
           sodipodi:role="line"
           style="font-size:3.1706px;stroke:none;stroke-width:2.71126"
           x="370.32315"
           y="60.04417"
           id="tspan11835">Ver</tspan><tspan
           sodipodi:role="line"
           style="font-size:3.1706px;stroke:none;stroke-width:2.71126"
           x="370.32315"
           y="64.007423"
           id="tspan12630">siguiente imagen</tspan></text></g><path
       style="color:#000000;fill:#e91e63;fill-opacity:1;stroke-width:0.8386;stroke-dasharray:7.97612, 1.99403;-inkscape-stroke:none;paint-order:stroke fill markers"
       d="m 387.68567,91.607515 h -7.97652 v 1.99331 h 7.97652 z m -9.96984,0 h -7.97652 v 1.99331 h 7.97652 z m -9.96984,0 h -7.97652 v 1.99331 h 7.97652 z m -9.96984,0 h -7.97652 v 1.99331 h 7.97652 z m -9.97147,0 h -7.97489 v 1.99331 h 7.97489 z m -9.96984,0 h -7.97653 v 1.99331 h 7.97653 z m -9.96984,0 h -7.97652 v 1.99331 h 7.97652 z m -9.96984,0 h -7.97652 v 1.99331 h 7.97652 z m -9.96984,0 h -7.97652 v 1.99331 h 7.97652 z"
       id="path12988" /><g
       id="g14256"
       transform="matrix(0.63345711,0,0,0.63345711,176.42548,-61.512358)"><circle
         style="fill:#ffffff;fill-opacity:1;stroke:#e91e63;stroke-width:2.33165;stroke-linecap:butt;stroke-dasharray:none;stroke-dashoffset:0;paint-order:stroke fill markers"
         id="circle14247"
         cx="301.00711"
         cy="219.20695"
         r="8.9818487" /><text
         xml:space="preserve"
         style="font-weight:bold;font-size:11.5019px;font-family:'Noto Sans';-inkscape-font-specification:'Noto Sans Bold';text-align:center;text-anchor:middle;fill:#e91e63;fill-opacity:1;stroke:none;stroke-width:5.42848;stroke-linecap:butt;stroke-dasharray:none;stroke-dashoffset:0;paint-order:stroke fill markers"
         x="300.97836"
         y="223.31313"
         id="text14251"><tspan
           sodipodi:role="line"
           id="tspan14249"
           style="fill:#e91e63;fill-opacity:1;stroke:none;stroke-width:5.42848"
           x="300.97836"
           y="223.31313">2</tspan></text></g><g
       id="g318"
       transform="translate(-116.14958)"><g
         id="g308"
         transform="matrix(0.69677505,0,0,0.69677505,220.42935,36.861467)"><g
           id="g300"
           transform="translate(-31.269574,91.839963)"><path
             style="fill:#e91e63;fill-opacity:1;stroke-width:0.0453797"
             d="m 372.4822,32.934292 c -0.0561,-0.0108 -0.14804,-0.0108 -0.20421,0 -0.0561,0.0108 -0.0102,0.0197 0.10211,0.0197 0.11232,0 0.15826,-0.009 0.1021,-0.0197 z"
             id="path294" /><path
             style="fill:#e91e63;fill-opacity:1;stroke-width:0.0453797"
             d="m 369.35221,42.498662 c -1.86342,-1.30862 -2.67348,-3.52297 -2.09269,-5.72046 0.0903,-0.3417 0.11091,-0.3968 0.32449,-0.86827 0.13818,-0.30503 0.47704,-0.84203 0.67816,-1.0747 0.61808,-0.71504 1.51728,-1.34262 2.30869,-1.61131 0.60654,-0.20592 1.85986,-0.39733 2.02456,-0.3092 0.053,0.0283 0.18158,0.0516 0.28573,0.0516 0.61909,0 1.79128,0.44334 2.48945,0.94153 0.82937,0.59183 1.60858,1.63204 1.88794,2.52031 0.041,0.13013 0.092,0.27745 0.11347,0.32737 0.1072,0.24917 0.19046,1.06872 0.16827,1.65635 -0.0215,0.56917 -0.0494,0.72921 -0.23774,1.36332 -0.12318,0.41474 -0.45747,1.10963 -0.64307,1.33677 -0.0204,0.0249 -0.0727,0.10089 -0.11625,0.16875 -0.0775,0.12078 -0.0865,0.12286 -0.43075,0.0994 -0.22479,-0.0154 -0.45796,-4.7e-4 -0.64655,0.0411 -0.16223,0.0359 -0.31305,0.0486 -0.33515,0.0283 -0.0221,-0.0203 -0.0398,-0.31149 -0.0392,-0.6472 l 6e-4,-0.61038 0.16243,-0.27717 c 0.33584,-0.573 0.5064,-1.25966 0.47094,-1.89596 -0.0295,-0.5301 -0.115,-0.86707 -0.33732,-1.32995 -0.74143,-1.5437 -2.51136,-2.28586 -4.16767,-1.74758 -0.65006,0.21126 -1.31298,0.70448 -1.69024,1.25755 -0.46286,0.6786 -0.60957,1.1623 -0.60925,2.00874 1.9e-4,0.51768 0.0151,0.63441 0.12121,0.95298 0.13372,0.40123 0.36603,0.85198 0.56978,1.10551 l 0.13272,0.16515 0.003,1.08909 c 0.002,0.599 0.002,1.11463 0.002,1.14583 -0.002,0.093 -0.0623,0.0678 -0.39738,-0.16756 z"
             id="path296" /><path
             style="fill:#e91e63;fill-opacity:1;stroke-width:0.0453797"
             d="m 372.81121,62.520582 c -0.17963,-0.091 -0.37842,-0.27758 -0.45785,-0.42963 -0.0448,-0.0858 -0.064,-0.28725 -0.064,-0.67234 0,-0.32699 -0.0211,-0.58923 -0.0521,-0.64713 -0.0286,-0.0535 -0.61576,-0.65974 -1.30467,-1.34712 -1.53882,-1.5354 -2.03274,-2.10879 -2.60489,-3.02398 -0.14199,-0.22712 -0.32126,-0.55386 -0.3984,-0.72609 -0.0771,-0.17221 -0.18955,-0.41908 -0.24983,-0.54856 -0.0603,-0.12949 -0.1096,-0.2574 -0.1096,-0.28423 0,-0.0269 -0.0181,-0.0843 -0.0401,-0.12761 -0.0905,-0.17781 -0.52867,-1.35344 -0.73137,-1.96206 -0.071,-0.21326 -0.27949,-0.794 -0.31765,-0.88491 -0.021,-0.0499 -0.094,-0.24391 -0.16236,-0.4311 -0.091,-0.24918 -0.1934,-0.41936 -0.3824,-0.63532 -0.69878,-0.79842 -0.86201,-1.1378 -0.86201,-1.79221 0,-0.98783 0.62223,-1.7858 1.59425,-2.04451 0.63648,-0.16941 1.49642,0.0516 1.92439,0.49464 0.24179,0.25028 0.71724,0.96618 1.63943,2.46853 0.0345,0.0561 0.0826,0.1021 0.10701,0.1021 0.0286,0 0.0443,-2.18423 0.0443,-6.17071 0,-6.6926 -0.0163,-6.22569 0.23505,-6.74474 0.11473,-0.23693 0.45796,-0.60769 0.703,-0.75939 0.43916,-0.27188 1.10166,-0.37858 1.58052,-0.25457 0.54788,0.14191 1.09183,0.57271 1.32907,1.05261 0.22837,0.46197 0.23652,0.56301 0.23652,2.93331 0,1.21761 0.013,2.2269 0.0291,2.24287 0.016,0.016 0.10616,-0.032 0.20044,-0.10673 0.55824,-0.44212 1.48284,-0.53507 2.15938,-0.21705 0.29651,0.13938 0.75132,0.57916 0.90694,0.87699 0.0717,0.13723 0.14529,0.24954 0.16351,0.2496 0.0183,5e-5 0.14076,-0.0677 0.27229,-0.15049 0.39625,-0.24955 0.51279,-0.28051 1.05595,-0.28051 0.69925,0 1.02973,0.12124 1.46757,0.53843 0.29134,0.27759 0.44415,0.52096 0.57758,0.91979 0.0657,0.19633 0.12566,0.36354 0.1333,0.37159 0.008,0.008 0.0924,-0.034 0.18835,-0.0934 0.34942,-0.2163 0.59938,-0.28127 1.08205,-0.28127 0.33863,0 0.51138,0.0221 0.6807,0.0872 0.50635,0.19458 0.93788,0.56496 1.14577,0.98341 0.24947,0.50211 0.23926,0.39674 0.28491,2.94125 0.0427,2.38053 0.0749,3.12462 0.2093,4.83414 0.10075,1.28168 0.0999,2.65332 -0.002,3.17658 -0.11256,0.57814 -0.28758,1.20922 -0.42162,1.52022 -0.0376,0.0873 -0.0857,0.19967 -0.10671,0.24958 -0.23402,0.5549 -0.58382,1.29823 -0.62998,1.3387 -0.0142,0.0125 -0.0859,0.14522 -0.15919,0.29497 -0.0733,0.14975 -0.16741,0.32333 -0.20908,0.38573 -0.27948,0.41855 -0.29948,0.49113 -0.33147,1.20261 -0.0168,0.3744 -0.0507,0.75335 -0.0752,0.8421 -0.0499,0.18089 -0.21081,0.35073 -0.46626,0.49226 -0.17122,0.0949 -0.1805,0.095 -4.92369,0.0902 -4.15641,-0.004 -4.7692,-0.0134 -4.88827,-0.0738 z"
             id="path298" /></g><text
           xml:space="preserve"
           style="font-weight:bold;font-size:4.93889px;font-family:'Noto Sans';-inkscape-font-specification:'Noto Sans Bold';text-align:center;text-anchor:middle;fill:#e91e63;fill-opacity:1;stroke:none;stroke-width:4.22337;stroke-linecap:butt;stroke-dasharray:16.8935, 4.22337;stroke-dashoffset:0;paint-order:stroke fill markers"
           x="343.89133"
           y="163.3918"
           id="text306"><tspan
             sodipodi:role="line"
             style="font-size:4.93889px;stroke:none;stroke-width:4.22337"
             x="343.89133"
             y="163.3918"
             id="tspan302">Toca aquí para</tspan><tspan
             sodipodi:role="line"
             style="font-size:4.93889px;stroke:none;stroke-width:4.22337"
             x="343.89133"
             y="169.56541"
             id="tspan304">ver el perfil completo</tspan></text></g><g
         id="g316"
         transform="matrix(0.63345711,0,0,0.63345711,269.29171,27.959177)"><circle
           style="fill:#ffffff;fill-opacity:1;stroke:#e91e63;stroke-width:2.33165;stroke-linecap:butt;stroke-dasharray:none;stroke-dashoffset:0;paint-order:stroke fill markers"
           id="circle310"
           cx="301.00711"
           cy="219.20695"
           r="8.9818487" /><text
           xml:space="preserve"
           style="font-weight:bold;font-size:11.5019px;font-family:'Noto Sans';-inkscape-font-specification:'Noto Sans Bold';text-align:center;text-anchor:middle;fill:#e91e63;fill-opacity:1;stroke:none;stroke-width:5.42848;stroke-linecap:butt;stroke-dasharray:none;stroke-dashoffset:0;paint-order:stroke fill markers"
           x="300.97836"
           y="223.31313"
           id="text314"><tspan
             sodipodi:role="line"
             id="tspan312"
             style="fill:#e91e63;fill-opacity:1;stroke:none;stroke-width:5.42848"
             x="300.97836"
             y="223.31313">3</tspan></text></g></g></g></svg>
