<?xml version="1.0" encoding="UTF-8" standalone="no"?>
<!-- Created with Inkscape (http://www.inkscape.org/) -->

<svg
   width="400"
   height="699.99994"
   viewBox="0 0 105.83333 185.20831"
   version="1.1"
   id="svg5"
   xml:space="preserve"
   inkscape:version="1.2.2 (b0a8486541, 2022-12-01)"
   sodipodi:docname="test-ad.svg"
   inkscape:export-filename="pon-tu-anuncio-aqui.jpg"
   inkscape:export-xdpi="96"
   inkscape:export-ydpi="96"
   xmlns:inkscape="http://www.inkscape.org/namespaces/inkscape"
   xmlns:sodipodi="http://sodipodi.sourceforge.net/DTD/sodipodi-0.dtd"
   xmlns="http://www.w3.org/2000/svg"
   xmlns:svg="http://www.w3.org/2000/svg"><sodipodi:namedview
     id="namedview7"
     pagecolor="#505050"
     bordercolor="#eeeeee"
     borderopacity="1"
     inkscape:showpageshadow="0"
     inkscape:pageopacity="0"
     inkscape:pagecheckerboard="0"
     inkscape:deskcolor="#505050"
     inkscape:document-units="mm"
     showgrid="false"
     inkscape:zoom="0.70710678"
     inkscape:cx="453.96255"
     inkscape:cy="1100.9653"
     inkscape:window-width="1920"
     inkscape:window-height="999"
     inkscape:window-x="0"
     inkscape:window-y="0"
     inkscape:window-maximized="1"
     inkscape:current-layer="layer1" /><defs
     id="defs2" /><g
     inkscape:label="Capa 1"
     inkscape:groupmode="layer"
     id="layer1"
     transform="translate(-174.8026)"><rect
       style="fill:#333333;stroke-width:3.96999;stroke-linecap:round;paint-order:stroke fill markers"
       id="rect428"
       width="105.83333"
       height="185.20833"
       x="174.80261"
       y="5.7220459e-06"
       inkscape:export-filename="tutorial-1.png"
       inkscape:export-xdpi="96"
       inkscape:export-ydpi="96" /><g
       id="g12997"
       transform="matrix(0.87126008,0,0,0.87126008,29.316562,11.921853)"><g
         id="g12379"
         transform="matrix(0.70907384,0,0,0.70907384,66.249495,26.940976)"><path
           style="fill:#e91e63;fill-opacity:1;stroke-width:0.0759017"
           d="m 203.25969,66.005645 c -1.03321,-1.040916 -1.87857,-1.92283 -1.87857,-1.959806 0,-0.05882 3.78604,-3.874572 3.84437,-3.874572 0.0128,0 0.032,0.486719 0.0435,1.081592 l 0.0211,1.081605 3.85348,0.01965 3.85348,0.01965 -0.0204,1.650162 -0.0204,1.650163 -3.83304,0.03802 -3.83302,0.03802 -0.0211,1.081592 c -0.0116,0.594887 -0.0457,1.078227 -0.0759,1.074092 -0.0302,-0.0039 -0.90019,-0.859155 -1.9334,-1.900072 z"
           id="path12374" /><path
           style="fill:#e91e63;fill-opacity:1;stroke-width:0.0759017"
           d="m 222.42684,72.092206 c -3.11675,-2.188794 -4.47165,-5.892495 -3.50021,-9.567992 0.15106,-0.571524 0.1855,-0.663689 0.54273,-1.452269 0.23112,-0.510183 0.79789,-1.408357 1.13428,-1.797516 1.03381,-1.195976 2.5378,-2.245665 3.86151,-2.695073 1.01448,-0.344425 3.11078,-0.664575 3.38625,-0.517157 0.0886,0.04739 0.30372,0.08631 0.47792,0.08631 1.03548,0 2.99608,0.741521 4.16383,1.574797 1.3872,0.989889 2.6905,2.729725 3.15776,4.215438 0.0685,0.217659 0.15385,0.464063 0.18978,0.547558 0.17931,0.41676 0.31856,1.787537 0.28144,2.770401 -0.036,0.951988 -0.0826,1.219672 -0.39764,2.280278 -0.20603,0.693692 -0.76516,1.855967 -1.07559,2.235866 -0.0342,0.04174 -0.12163,0.168764 -0.19444,0.282249 -0.12964,0.202016 -0.14473,0.205496 -0.72047,0.166234 -0.37598,-0.02569 -0.76598,-7.84e-4 -1.08141,0.06884 -0.27135,0.05998 -0.52361,0.0813 -0.56057,0.04739 -0.037,-0.03391 -0.0665,-0.521011 -0.0656,-1.082517 l 0.001,-1.020919 0.27169,-0.463574 c 0.56172,-0.95841 0.847,-2.106917 0.78768,-3.171183 -0.0494,-0.886627 -0.19235,-1.450253 -0.5642,-2.224461 -1.24011,-2.581973 -4.20047,-3.8233 -6.97081,-2.922994 -1.08728,0.353351 -2.19608,1.178317 -2.82707,2.103385 -0.77419,1.135021 -1.01957,1.944035 -1.01903,3.359802 3.1e-4,0.86586 0.0252,1.061094 0.20274,1.593934 0.22365,0.6711 0.61221,1.425015 0.953,1.849069 l 0.22199,0.276226 0.005,1.821611 c 0.003,1.001885 0.004,1.864315 0.003,1.916498 -0.004,0.155561 -0.10416,0.113408 -0.66466,-0.280246 z"
           id="path12370" /><path
           style="fill:#e91e63;fill-opacity:1;stroke-width:0.0759017"
           d="m 228.21234,105.58071 c -0.30046,-0.1523 -0.63294,-0.46428 -0.7658,-0.71861 -0.075,-0.14355 -0.10711,-0.48045 -0.10711,-1.12454 0,-0.54692 -0.0353,-0.98555 -0.0871,-1.08239 -0.0479,-0.0895 -1.02991,-1.10348 -2.18218,-2.25318 -2.57382,-2.568087 -3.39995,-3.527137 -4.35692,-5.057887 -0.23749,-0.37988 -0.53734,-0.92637 -0.66635,-1.21444 -0.129,-0.28805 -0.31704,-0.70095 -0.41787,-0.91753 -0.10082,-0.21658 -0.18332,-0.43051 -0.18332,-0.4754 0,-0.045 -0.0302,-0.14094 -0.067,-0.21343 -0.15128,-0.29741 -0.88425,-2.26375 -1.22328,-3.28172 -0.1188,-0.3567 -0.46748,-1.328051 -0.53131,-1.480093 -0.0351,-0.08348 -0.15724,-0.407962 -0.27155,-0.721061 -0.15215,-0.416773 -0.32348,-0.701424 -0.6396,-1.062623 -1.16877,-1.335444 -1.4418,-1.903089 -1.4418,-2.997653 0,-1.65223 1.04075,-2.986904 2.66654,-3.419628 1.06457,-0.283341 2.50289,0.08631 3.21871,0.827329 0.40442,0.418634 1.19965,1.616036 2.74211,4.128847 0.0577,0.09389 0.1382,0.17078 0.17897,0.17078 0.0479,0 0.0741,-3.653328 0.0741,-10.321084 0,-11.193983 -0.0272,-10.413032 0.39315,-11.28119 0.19189,-0.396287 0.76597,-1.016424 1.17583,-1.270161 0.73453,-0.454738 1.84263,-0.633211 2.64356,-0.425776 0.91638,0.237349 1.82619,0.957896 2.22299,1.760578 0.38198,0.772693 0.39561,0.941688 0.39561,4.906241 0,2.036547 0.0218,3.724674 0.0486,3.751389 0.0267,0.02671 0.17757,-0.05356 0.33525,-0.1785 0.93371,-0.739504 2.48019,-0.894962 3.61177,-0.363048 0.49594,0.233123 1.25665,0.968711 1.51694,1.46686 0.11995,0.229514 0.243,0.417363 0.27349,0.417466 0.0306,7.7e-5 0.23543,-0.113152 0.45542,-0.251708 0.66276,-0.417389 0.85769,-0.469174 1.76617,-0.469174 1.16957,0 1.72232,0.202787 2.45465,0.900563 0.48729,0.464306 0.74289,0.871356 0.96606,1.538436 0.10981,0.328383 0.21018,0.608064 0.22296,0.621524 0.0129,0.01349 0.15454,-0.05677 0.31502,-0.156164 0.58445,-0.361764 1.00252,-0.470433 1.80984,-0.470433 0.56639,0 0.85533,0.03699 1.13852,0.145838 0.84692,0.325455 1.56869,0.94495 1.91642,1.644845 0.41725,0.839838 0.40018,0.663587 0.47653,4.919508 0.0714,3.981661 0.12535,5.226211 0.35008,8.085542 0.1685,2.14373 0.16707,4.43793 -0.004,5.31312 -0.18827,0.967 -0.48101,2.02253 -0.7052,2.54271 -0.0629,0.1461 -0.14329,0.33397 -0.17849,0.41745 -0.39141,0.92812 -0.97649,2.171397 -1.0537,2.239097 -0.0238,0.0209 -0.14363,0.24289 -0.26626,0.49336 -0.12266,0.25048 -0.28,0.5408 -0.34969,0.64517 -0.46747,0.70007 -0.50092,0.82146 -0.55442,2.01148 -0.0281,0.62622 -0.0848,1.26005 -0.12574,1.40848 -0.0835,0.30256 -0.35261,0.58664 -0.77987,0.82335 -0.28639,0.15868 -0.30191,0.15896 -8.23532,0.15092 -6.95198,-0.006 -7.97693,-0.0225 -8.17609,-0.12342 z"
           id="path9086-3" /></g><text
         xml:space="preserve"
         style="font-weight:bold;font-size:4.50262px;font-family:'Noto Sans';-inkscape-font-specification:'Noto Sans Bold';text-align:center;text-anchor:middle;fill:#e91e63;fill-opacity:1;stroke:none;stroke-width:2.99468;stroke-linecap:butt;stroke-dasharray:11.9787, 2.99468;stroke-dashoffset:0;paint-order:stroke fill markers"
         x="227.64049"
         y="111.83234"
         id="text11705"><tspan
           sodipodi:role="line"
           id="tspan11703"
           style="font-size:4.50262px;stroke:none;stroke-width:2.99468"
           x="227.64049"
           y="111.83234">Desliza a la izquierda</tspan><tspan
           sodipodi:role="line"
           style="font-size:4.50262px;stroke:none;stroke-width:2.99468"
           x="227.64049"
           y="117.46061"
           id="tspan11809">para pasar a la siguiente</tspan></text></g><g
       id="g14871"
       transform="matrix(0.63345711,0,0,0.63345711,37.044182,-9.7354983)"><circle
         style="fill:#ffffff;fill-opacity:1;stroke:#e91e63;stroke-width:2.33165;stroke-linecap:butt;stroke-dasharray:none;stroke-dashoffset:0;paint-order:stroke fill markers"
         id="circle14865"
         cx="301.00711"
         cy="219.20695"
         r="8.9818487" /><text
         xml:space="preserve"
         style="font-weight:bold;font-size:11.5019px;font-family:'Noto Sans';-inkscape-font-specification:'Noto Sans Bold';text-align:center;text-anchor:middle;fill:#e91e63;fill-opacity:1;stroke:none;stroke-width:5.42848;stroke-linecap:butt;stroke-dasharray:none;stroke-dashoffset:0;paint-order:stroke fill markers"
         x="300.97836"
         y="223.31313"
         id="text14869"><tspan
           sodipodi:role="line"
           id="tspan14867"
           style="fill:#e91e63;fill-opacity:1;stroke:none;stroke-width:5.42848"
           x="300.97836"
           y="223.31313">1</tspan></text></g></g></svg>
