<?xml version="1.0" encoding="UTF-8" standalone="no"?>
<!-- Created with Inkscape (http://www.inkscape.org/) -->

<svg
   version="1.1"
   id="svg2"
   width="265.51816"
   height="354.02423"
   viewBox="0 0 265.51816 354.02423"
   sodipodi:docname="default-films-page.svg"
   inkscape:version="1.2.2 (b0a8486541, 2022-12-01)"
   xmlns:inkscape="http://www.inkscape.org/namespaces/inkscape"
   xmlns:sodipodi="http://sodipodi.sourceforge.net/DTD/sodipodi-0.dtd"
   xmlns="http://www.w3.org/2000/svg"
   xmlns:svg="http://www.w3.org/2000/svg">
  <defs
     id="defs6" />
  <sodipodi:namedview
     id="namedview4"
     pagecolor="#505050"
     bordercolor="#eeeeee"
     borderopacity="1"
     inkscape:showpageshadow="0"
     inkscape:pageopacity="0"
     inkscape:pagecheckerboard="0"
     inkscape:deskcolor="#505050"
     showgrid="false"
     inkscape:zoom="1.885489"
     inkscape:cx="214.5332"
     inkscape:cy="198.62221"
     inkscape:window-width="1920"
     inkscape:window-height="999"
     inkscape:window-x="0"
     inkscape:window-y="0"
     inkscape:window-maximized="1"
     inkscape:current-layer="g8" />
  <g
     inkscape:groupmode="layer"
     inkscape:label="Image"
     id="g8">
    <rect
       style="fill:#4d4d4d;stroke-width:5.58236;paint-order:stroke fill markers;fill-opacity:1"
       id="rect222"
       width="265.51816"
       height="354.02423"
       x="0"
       y="0" />
    <path
       d="M 218.17356,93.495728 H 47.344589 A 20.902823,20.902823 0 0 0 26.465499,114.37483 V 239.6494 a 20.902823,20.902823 0 0 0 20.87909,20.8791 H 218.17356 a 20.902823,20.902823 0 0 0 20.8791,-20.8791 V 114.37483 A 20.902823,20.902823 0 0 0 218.17356,93.495728 Z M 64.427489,239.6494 a 5.694299,5.694299 0 0 1 -5.69431,5.69431 h -11.38859 a 5.694299,5.694299 0 0 1 -5.6943,-5.69431 v -11.38859 a 5.694299,5.694299 0 0 1 5.6943,-5.6943 h 11.38859 a 5.694299,5.694299 0 0 1 5.69431,5.6943 z m 0,-37.96198 a 5.694299,5.694299 0 0 1 -5.69431,5.6943 h -11.38859 a 5.694299,5.694299 0 0 1 -5.6943,-5.6943 v -11.3886 a 5.694299,5.694299 0 0 1 5.6943,-5.6943 h 11.38859 a 5.694299,5.694299 0 0 1 5.69431,5.6943 z m 0,-37.962 a 5.694299,5.694299 0 0 1 -5.69431,5.6943 h -11.38859 a 5.694299,5.694299 0 0 1 -5.6943,-5.6943 v -11.38859 a 5.694299,5.694299 0 0 1 5.6943,-5.69431 h 11.38859 a 5.694299,5.694299 0 0 1 5.69431,5.69431 z m 0,-37.962 a 5.694299,5.694299 0 0 1 -5.69431,5.69431 h -11.38859 a 5.694299,5.694299 0 0 1 -5.6943,-5.69431 v -11.38859 a 5.694299,5.694299 0 0 1 5.6943,-5.6943 h 11.38859 a 5.694299,5.694299 0 0 1 5.69431,5.6943 z m 114.683181,58.8411 H 86.407489 a 7.5924036,7.5924036 0 0 1 0,-15.1848 h 92.703181 a 7.5924036,7.5924036 0 1 1 0,15.1848 z m 44.7572,55.04488 a 5.694299,5.694299 0 0 1 -5.69431,5.69431 h -11.38859 a 5.694299,5.694299 0 0 1 -5.6943,-5.69431 v -11.38859 a 5.694299,5.694299 0 0 1 5.6943,-5.6943 h 11.38859 a 5.694299,5.694299 0 0 1 5.69431,5.6943 z m 0,-37.96198 a 5.694299,5.694299 0 0 1 -5.69431,5.6943 h -11.38859 a 5.694299,5.694299 0 0 1 -5.6943,-5.6943 v -11.3886 a 5.694299,5.694299 0 0 1 5.6943,-5.6943 h 11.38859 a 5.694299,5.694299 0 0 1 5.69431,5.6943 z m 0,-37.962 a 5.694299,5.694299 0 0 1 -5.69431,5.6943 h -11.38859 a 5.694299,5.694299 0 0 1 -5.6943,-5.6943 v -11.38859 a 5.694299,5.694299 0 0 1 5.6943,-5.69431 h 11.38859 a 5.694299,5.694299 0 0 1 5.69431,5.69431 z m 0,-37.962 a 5.694299,5.694299 0 0 1 -5.69431,5.69431 h -11.38859 a 5.694299,5.694299 0 0 1 -5.6943,-5.69431 v -11.38859 a 5.694299,5.694299 0 0 1 5.6943,-5.6943 h 11.38859 a 5.694299,5.694299 0 0 1 5.69431,5.6943 z"
       id="path500"
       style="stroke-width:0.474525;fill:#b3b3b3;fill-opacity:1" />
  </g>
</svg>
