<?xml version="1.0" encoding="UTF-8" standalone="no"?>
<!-- Created with Inkscape (http://www.inkscape.org/) -->

<svg
   version="1.1"
   id="svg2"
   width="265.51816"
   height="354.02423"
   viewBox="0 0 265.51816 354.02423"
   sodipodi:docname="default-music-page.svg"
   inkscape:version="1.2.2 (b0a8486541, 2022-12-01)"
   xmlns:inkscape="http://www.inkscape.org/namespaces/inkscape"
   xmlns:sodipodi="http://sodipodi.sourceforge.net/DTD/sodipodi-0.dtd"
   xmlns="http://www.w3.org/2000/svg"
   xmlns:svg="http://www.w3.org/2000/svg">
  <defs
     id="defs6" />
  <sodipodi:namedview
     id="namedview4"
     pagecolor="#505050"
     bordercolor="#eeeeee"
     borderopacity="1"
     inkscape:showpageshadow="0"
     inkscape:pageopacity="0"
     inkscape:pagecheckerboard="0"
     inkscape:deskcolor="#505050"
     showgrid="false"
     inkscape:zoom="1.885489"
     inkscape:cx="214.5332"
     inkscape:cy="198.62221"
     inkscape:window-width="1920"
     inkscape:window-height="999"
     inkscape:window-x="0"
     inkscape:window-y="0"
     inkscape:window-maximized="1"
     inkscape:current-layer="g8" />
  <g
     inkscape:groupmode="layer"
     inkscape:label="Image"
     id="g8">
    <rect
       style="fill:#4d4d4d;stroke-width:5.58236;paint-order:stroke fill markers;fill-opacity:1"
       id="rect222"
       width="265.51816"
       height="354.02423"
       x="0"
       y="0" />
    <path
       d="M 213.515,94.497001 C 191.27537,72.845503 161.84287,60.42712 132.75908,60.42712 c -29.08379,0 -58.516298,12.418383 -80.755923,34.069881 -23.103605,22.489449 -35.829066,51.807459 -35.829066,82.515109 0,13.88091 4.554102,31.79544 17.113012,65.34485 12.558909,33.54941 37.5362,47.59687 48.086099,49.89213 3.02393,0.661 6.568314,1.34801 9.748382,1.34801 a 31.25935,31.25935 0 0 0 15.614056,-4.16375 l 7.28656,-4.16375 c 7.84347,-4.59053 10.13354,-14.64078 5.62107,-22.56231 L 74.40413,183.29938 a 16.514471,16.514471 0 0 0 -22.676821,-6.12071 l -7.125217,4.16375 a 29.401276,29.401276 0 0 0 -7.286561,6.03223 2.0818748,2.0818748 0 0 1 -3.643282,-1.04094 59.68735,59.68735 0 0 1 -0.843159,-9.3216 c 0,-26.18477 10.929842,-51.25575 30.790927,-70.58076 19.174069,-18.653603 44.359543,-29.349233 69.139063,-29.349233 24.77952,0 49.96499,10.69563 69.13906,29.349233 19.86109,19.32501 30.79093,44.39599 30.79093,70.58076 a 59.68735,59.68735 0 0 1 -0.87439,9.3216 2.0818748,2.0818748 0 0 1 -3.64328,1.04094 29.401276,29.401276 0 0 0 -7.28656,-6.03223 l -7.12522,-4.16375 a 16.514471,16.514471 0 0 0 -22.67682,6.12071 l -45.20791,79.40791 c -4.51246,7.92153 -2.2224,17.97178 5.62107,22.56231 l 7.28656,4.16375 a 31.25935,31.25935 0 0 0 15.61405,4.16375 c 3.18007,0 6.72447,-0.68701 9.74838,-1.34801 10.5499,-2.29526 35.5324,-16.34793 48.0861,-49.89213 12.55371,-33.54421 17.11302,-51.46394 17.11302,-65.34485 0,-30.70765 -12.72546,-60.02566 -35.82907,-82.515109 z"
       id="path1240"
       style="stroke-width:0.520469;fill:#b3b3b3;fill-opacity:1" />
  </g>
</svg>
