<?xml version="1.0" encoding="UTF-8" standalone="no"?>
<!-- Created with Inkscape (http://www.inkscape.org/) -->

<svg
   version="1.1"
   id="svg2"
   width="265.51816"
   height="354.02423"
   viewBox="0 0 265.51816 354.02423"
   sodipodi:docname="default-hobbies-page.svg"
   inkscape:version="1.2.2 (b0a8486541, 2022-12-01)"
   xmlns:inkscape="http://www.inkscape.org/namespaces/inkscape"
   xmlns:sodipodi="http://sodipodi.sourceforge.net/DTD/sodipodi-0.dtd"
   xmlns="http://www.w3.org/2000/svg"
   xmlns:svg="http://www.w3.org/2000/svg">
  <defs
     id="defs6" />
  <sodipodi:namedview
     id="namedview4"
     pagecolor="#505050"
     bordercolor="#eeeeee"
     borderopacity="1"
     inkscape:showpageshadow="0"
     inkscape:pageopacity="0"
     inkscape:pagecheckerboard="0"
     inkscape:deskcolor="#505050"
     showgrid="false"
     inkscape:zoom="1.885489"
     inkscape:cx="214.5332"
     inkscape:cy="198.62221"
     inkscape:window-width="1920"
     inkscape:window-height="999"
     inkscape:window-x="0"
     inkscape:window-y="0"
     inkscape:window-maximized="1"
     inkscape:current-layer="g8" />
  <g
     inkscape:groupmode="layer"
     inkscape:label="Image"
     id="g8">
    <rect
       style="fill:#4d4d4d;stroke-width:5.58236;paint-order:stroke fill markers;fill-opacity:1"
       id="rect222"
       width="265.51816"
       height="354.02423"
       x="0"
       y="0" />
    <g
       id="g1596"
       transform="matrix(0.96226657,0,0,0.96226657,5.0094578,24.270747)">
      <path
         style="fill:#b3b3b3;fill-opacity:1;stroke-width:0.27702"
         d="m 210.32811,129.22086 c -3.13954,0 -5.77193,1.07019 -7.89583,3.19399 -2.12381,2.12391 -3.194,4.75629 -3.194,7.89583 v 22.15974 h -22.15972 c -3.13955,0 -5.77194,1.05037 -7.89574,3.17417 -2.1238,2.12381 -3.17418,4.75619 -3.17418,7.89575 0,3.13953 1.05038,5.77202 3.17418,7.89583 2.1238,2.1238 4.75619,3.19399 7.89574,3.19399 h 22.15972 v 22.15972 c 0,3.13956 1.07019,5.77194 3.194,7.89574 2.1239,2.12381 4.75629,3.19409 7.89583,3.19409 3.13955,0 5.77192,-1.07028 7.89574,-3.19409 2.1238,-2.1238 3.17417,-4.75618 3.17417,-7.89574 v -22.15972 h 22.15974 c 3.13954,0 5.77203,-1.07019 7.89583,-3.19399 2.1238,-2.12381 3.19399,-4.7563 3.19399,-7.89583 0,-3.13956 -1.07019,-5.77194 -3.19399,-7.89575 -2.1238,-2.1238 -4.75629,-3.17417 -7.89583,-3.17417 h -22.15974 v -22.15974 c 0,-3.13954 -1.05037,-5.77192 -3.17417,-7.89583 -2.12382,-2.1238 -4.75619,-3.19399 -7.89574,-3.19399 z"
         id="path1585" />
      <path
         style="fill:#b3b3b3;fill-opacity:1;stroke-width:0.27702"
         d="m 71.814825,62.741644 c -17.359861,0 -31.851501,5.776712 -43.486261,17.319141 -11.634761,11.542444 -17.457991,25.987545 -17.457991,43.347415 0,12.18875 3.469967,24.18756 10.395466,36.00709 6.925395,11.81942 15.361209,23.14012 25.333914,33.94381 9.97272,10.80378 20.502253,20.91463 31.58304,30.33328 11.080789,9.41873 20.679805,17.82771 28.805707,25.21485 2.03148,2.03149 4.33822,3.50064 6.92368,4.42406 2.58556,0.9233 5.17142,1.38872 7.75688,1.38872 2.58556,0 5.17142,-0.41849 7.75688,-1.24987 2.58556,-0.83088 4.9121,-2.25361 6.94359,-4.2851 l 21.88203,-19.4022 c 2.21613,-2.03149 3.45259,-4.5243 3.72958,-7.47919 0.27729,-2.95477 -0.5871,-5.54074 -2.61867,-7.75688 -5.35569,-5.725 -9.29095,-12.04025 -11.78418,-18.96575 -2.49313,-6.9254 -3.72959,-14.28411 -3.72959,-22.04068 0,-19.02192 6.54785,-34.84306 19.66,-47.49366 13.11226,-12.65051 27.51086,-18.98556 43.20856,-18.98556 h 4.44386 c 4.98636,0.36974 8.80868,-1.2394 11.48657,-4.8406 2.67788,-3.601294 3.00353,-7.164302 0.97206,-10.673166 -5.17102,-8.31056 -12.2307,-15.184148 -21.18767,-20.632165 -8.95688,-5.448106 -19.25393,-8.173545 -30.88869,-8.173545 -9.60329,0 -18.73701,1.981004 -27.41698,5.951614 -8.67989,3.970624 -16.17826,9.654181 -22.45735,17.041338 C 115.39017,78.347439 107.9117,72.663882 99.231814,68.693258 90.551839,64.722648 81.418115,62.741644 71.814825,62.741644 Z"
         id="path207" />
    </g>
  </g>
</svg>
