<?xml version="1.0" encoding="UTF-8" standalone="no"?>
<!-- Created with Inkscape (http://www.inkscape.org/) -->

<svg
   version="1.1"
   id="svg2"
   width="265.51816"
   height="354.02423"
   viewBox="0 0 265.51816 354.02423"
   sodipodi:docname="default-food-page.svg"
   inkscape:version="1.2.2 (b0a8486541, 2022-12-01)"
   xmlns:inkscape="http://www.inkscape.org/namespaces/inkscape"
   xmlns:sodipodi="http://sodipodi.sourceforge.net/DTD/sodipodi-0.dtd"
   xmlns="http://www.w3.org/2000/svg"
   xmlns:svg="http://www.w3.org/2000/svg">
  <defs
     id="defs6" />
  <sodipodi:namedview
     id="namedview4"
     pagecolor="#505050"
     bordercolor="#eeeeee"
     borderopacity="1"
     inkscape:showpageshadow="0"
     inkscape:pageopacity="0"
     inkscape:pagecheckerboard="0"
     inkscape:deskcolor="#505050"
     showgrid="false"
     inkscape:zoom="1.885489"
     inkscape:cx="214.5332"
     inkscape:cy="198.62221"
     inkscape:window-width="1920"
     inkscape:window-height="999"
     inkscape:window-x="0"
     inkscape:window-y="0"
     inkscape:window-maximized="1"
     inkscape:current-layer="g8" />
  <g
     inkscape:groupmode="layer"
     inkscape:label="Image"
     id="g8">
    <rect
       style="fill:#4d4d4d;stroke-width:5.58236;paint-order:stroke fill markers;fill-opacity:1"
       id="rect222"
       width="265.51816"
       height="354.02423"
       x="0"
       y="0" />
    <g
       id="g1372"
       transform="matrix(11.658499,0,0,11.658499,-7.1429093,37.110124)"
       style="fill:#b3b3b3;fill-opacity:1">
      <path
         d="M 9,6 H 8 V 4.65 L 9,4.53 Z m 0,6 H 8 V 7 H 9 Z M 6,7 h 1 v 5 H 6 Z M 6,4.88 7,4.76 V 6 H 6 Z M 22,3 V 2 L 5,4 v 8 H 2 c 0,3.69 2.47,6.86 6,8.25 V 22 h 8 V 20.25 C 19.53,18.86 22,15.69 22,12 H 10 V 7 H 22 V 6 H 10 V 4.41 Z"
         id="path1370"
         style="fill:#b3b3b3;fill-opacity:1" />
    </g>
  </g>
</svg>
