<?xml version="1.0" encoding="UTF-8" standalone="no"?>
<!-- Created with Inkscape (http://www.inkscape.org/) -->

<svg
   version="1.1"
   id="svg2"
   width="265.51816"
   height="354.02423"
   viewBox="0 0 265.51816 354.02423"
   sodipodi:docname="default-role-page.svg"
   inkscape:version="1.2.2 (b0a8486541, 2022-12-01)"
   xmlns:inkscape="http://www.inkscape.org/namespaces/inkscape"
   xmlns:sodipodi="http://sodipodi.sourceforge.net/DTD/sodipodi-0.dtd"
   xmlns="http://www.w3.org/2000/svg"
   xmlns:svg="http://www.w3.org/2000/svg">
  <defs
     id="defs6" />
  <sodipodi:namedview
     id="namedview4"
     pagecolor="#505050"
     bordercolor="#eeeeee"
     borderopacity="1"
     inkscape:showpageshadow="0"
     inkscape:pageopacity="0"
     inkscape:pagecheckerboard="0"
     inkscape:deskcolor="#505050"
     showgrid="false"
     inkscape:zoom="1.885489"
     inkscape:cx="214.5332"
     inkscape:cy="198.62221"
     inkscape:window-width="1920"
     inkscape:window-height="999"
     inkscape:window-x="0"
     inkscape:window-y="0"
     inkscape:window-maximized="1"
     inkscape:current-layer="g8" />
  <g
     inkscape:groupmode="layer"
     inkscape:label="Image"
     id="g8">
    <rect
       style="fill:#4d4d4d;stroke-width:5.58236;paint-order:stroke fill markers;fill-opacity:1"
       id="rect222"
       width="265.51816"
       height="354.02423"
       x="0"
       y="0" />
    <path
       d="m 235.00392,106.98483 -84.4593,-49.081737 a 35.471581,35.471581 0 0 0 -35.57665,0 L 30.514188,106.98483 a 2.2121348,2.2121348 0 0 0 0,3.81593 L 131.653,170.29613 a 2.2121348,2.2121348 0 0 0 2.24531,0 l 101.11668,-59.49537 a 2.2121348,2.2121348 0 0 0 -0.0111,-3.81593 z m -102.24486,12.51515 c -7.3277,0 -13.2728,-3.95972 -13.2728,-8.84853 0,-4.88883 5.9451,-8.84855 13.2728,-8.84855 7.32769,0 13.27281,3.95972 13.27281,8.84855 0,4.88881 -5.94512,8.84853 -13.27281,8.84853 z M 122.80445,185.20592 21.046252,125.8488 a 2.2121348,2.2121348 0 0 0 -3.318201,1.91351 v 96.1836 a 26.545617,26.545617 0 0 0 13.184324,22.89007 l 89.679945,53.77147 a 2.2121348,2.2121348 0 0 0 3.31819,-1.91349 V 187.11942 a 2.2121348,2.2121348 0 0 0 -1.10606,-1.9135 z m -78.53078,53.74933 c -4.888821,0 -8.848543,-5.94511 -8.848543,-13.2728 0,-7.3277 3.959722,-13.2728 8.848543,-13.2728 4.888819,0 8.848533,5.9451 8.848533,13.2728 0,7.32769 -3.959714,13.2728 -8.848533,13.2728 z m 53.091228,-17.69707 c -4.888819,0 -8.848534,-5.94511 -8.848534,-13.27281 0,-7.3277 3.959715,-13.27281 8.848534,-13.27281 4.888822,0 8.848552,5.94511 8.848552,13.27281 0,7.3277 -3.95973,13.27281 -8.848552,13.27281 z M 244.47186,125.86541 142.71367,185.62069 a 2.2121348,2.2121348 0 0 0 -1.10608,1.90797 v 111.15423 a 2.2121348,2.2121348 0 0 0 3.31821,1.9135 l 89.67442,-53.77146 a 26.545617,26.545617 0 0 0 13.18984,-22.87902 v -96.15043 a 2.2121348,2.2121348 0 0 0 -3.3182,-1.93007 z m -76.31864,144.05973 c -4.88883,0 -8.84855,-5.94511 -8.84855,-13.2728 0,-7.3277 3.95972,-13.2728 8.84855,-13.2728 4.88882,0 8.84853,5.9451 8.84853,13.2728 0,7.32769 -3.95971,13.2728 -8.84853,13.2728 z m 0,-48.66696 c -4.88883,0 -8.84855,-5.94511 -8.84855,-13.27281 0,-7.3277 3.95972,-13.27281 8.84855,-13.27281 4.88882,0 8.84853,5.94511 8.84853,13.27281 0,7.3277 -3.95971,13.27281 -8.84853,13.27281 z m 53.09124,17.69707 c -4.88883,0 -8.84855,-5.94511 -8.84855,-13.2728 0,-7.3277 3.95972,-13.2728 8.84855,-13.2728 4.88881,0 8.84852,5.9451 8.84852,13.2728 0,7.32769 -3.95971,13.2728 -8.84852,13.2728 z m 0,-48.66695 c -4.88883,0 -8.84855,-5.94511 -8.84855,-13.27281 0,-7.32771 3.95972,-13.27282 8.84855,-13.27282 4.88881,0 8.84852,5.94511 8.84852,13.27282 0,7.3277 -3.95971,13.27281 -8.84852,13.27281 z"
       id="path1183"
       style="stroke-width:0.553033;fill:#b3b3b3;fill-opacity:1" />
  </g>
</svg>
