<?xml version="1.0" encoding="UTF-8" standalone="no"?>
<!-- Created with Inkscape (http://www.inkscape.org/) -->

<svg
   version="1.1"
   id="svg2"
   width="265.51816"
   height="354.02423"
   viewBox="0 0 265.51816 354.02423"
   sodipodi:docname="default-games-page.svg"
   inkscape:version="1.2.2 (b0a8486541, 2022-12-01)"
   xmlns:inkscape="http://www.inkscape.org/namespaces/inkscape"
   xmlns:sodipodi="http://sodipodi.sourceforge.net/DTD/sodipodi-0.dtd"
   xmlns="http://www.w3.org/2000/svg"
   xmlns:svg="http://www.w3.org/2000/svg">
  <defs
     id="defs6" />
  <sodipodi:namedview
     id="namedview4"
     pagecolor="#505050"
     bordercolor="#eeeeee"
     borderopacity="1"
     inkscape:showpageshadow="0"
     inkscape:pageopacity="0"
     inkscape:pagecheckerboard="0"
     inkscape:deskcolor="#505050"
     showgrid="false"
     inkscape:zoom="1.885489"
     inkscape:cx="214.5332"
     inkscape:cy="198.62221"
     inkscape:window-width="1920"
     inkscape:window-height="999"
     inkscape:window-x="0"
     inkscape:window-y="0"
     inkscape:window-maximized="1"
     inkscape:current-layer="g8" />
  <g
     inkscape:groupmode="layer"
     inkscape:label="Image"
     id="g8">
    <rect
       style="fill:#4d4d4d;stroke-width:5.58236;paint-order:stroke fill markers;fill-opacity:1"
       id="rect222"
       width="265.51816"
       height="354.02423"
       x="0"
       y="0" />
    <path
       d="M 241.74398,171.90408 C 231.56576,125.88854 216.24804,101.32836 193.52579,94.619663 a 51.409376,51.409376 0 0 0 -14.70827,-2.07787 c -6.57913,0 -12.30888,1.60279 -18.36975,3.30156 -7.30375,2.04908 -15.60084,4.376487 -27.69858,4.376487 -12.09773,0 -20.39963,-2.322607 -27.71778,-4.371687 -6.065655,-1.70357 -11.790605,-3.30636 -18.350543,-3.30636 a 55.54113,55.54113 0 0 0 -15.226542,2.07307 c -22.602275,6.679907 -37.910396,31.230487 -48.23738,77.260427 -11.104387,49.53305 -5.638572,80.80673 15.327317,88.06249 a 27.170717,27.170717 0 0 0 8.944934,1.54521 c 14.362761,0 25.879843,-11.96337 33.74985,-21.75769 8.892147,-11.08519 19.300714,-16.70936 51.510144,-16.70936 28.76871,0 40.6745,3.90141 50.95829,16.70936 6.46396,8.05236 12.57282,13.68614 18.66727,17.23244 8.10515,4.7124 16.2055,5.75854 24.0707,3.05682 12.39047,-4.22773 19.49267,-15.40409 21.11466,-33.22678 1.23328,-13.66694 -0.66704,-31.61919 -5.81613,-54.8837 z M 109.71503,169.32234 H 94.358922 v 15.35611 a 7.678055,7.678055 0 0 1 -15.35611,0 v -15.35611 h -15.35611 a 7.678055,7.678055 0 0 1 0,-15.35611 h 15.35611 v -15.35611 a 7.678055,7.678055 0 0 1 15.35611,0 v 15.35611 h 15.356108 a 7.678055,7.678055 0 0 1 0,15.35611 z m 40.30978,1.91951 a 9.5975686,9.5975686 0 1 1 9.59757,-9.59757 9.5975686,9.5975686 0 0 1 -9.59757,9.59757 z m 21.11466,21.11465 a 9.5975686,9.5975686 0 1 1 9.59756,-9.57357 9.5975686,9.5975686 0 0 1 -9.59756,9.57357 z m 0,-42.2293 a 9.5975686,9.5975686 0 1 1 9.59756,-9.59757 9.5975686,9.5975686 0 0 1 -9.59756,9.59757 z m 21.11465,21.11465 a 9.5975686,9.5975686 0 1 1 9.59757,-9.59757 9.5975686,9.5975686 0 0 1 -9.59757,9.59757 z"
       id="path724"
       style="stroke-width:0.479878;fill:#b3b3b3;fill-opacity:1" />
  </g>
</svg>
